<svg width="573" height="601" viewBox="0 0 573 601" fill="none" xmlns="http://www.w3.org/2000/svg">
<path d="M31.4569 371.092C-18.92 470.495 67.0342 529.652 145.698 547.871C224.361 566.095 517.62 568.603 564.539 367.581C588.727 263.953 563.003 83.0816 457.767 74.4524C352.534 65.8185 322.748 236.386 249.634 265.524C176.523 294.663 69.2632 296.493 31.4569 371.092Z" fill="#5D5FEF"/>
<path d="M18.0577 369.912C16.5354 369.329 15.7402 367.595 16.3894 366.083C17.0796 364.591 18.8618 363.905 20.3698 364.553C21.8777 365.2 22.562 366.889 21.8967 368.324C21.2736 369.775 19.6036 370.503 18.0577 369.912Z" fill="#1A1A5E"/>
<path d="M13.7301 381.985C12.1503 381.527 11.2726 379.882 11.7711 378.31C12.2673 376.738 13.9313 375.896 15.5129 376.436C17.0422 376.958 17.9205 378.604 17.4487 380.102C16.9758 381.599 15.3105 382.442 13.7301 381.985Z" fill="#1A1A5E"/>
<path d="M10.4549 394.368C8.83711 394.061 7.83832 392.511 8.22703 390.906C8.61456 389.301 10.2258 388.318 11.8246 388.708C13.4228 389.099 14.421 390.649 14.0524 392.17C13.6839 393.691 12.0726 394.675 10.4549 394.368Z" fill="#1A1A5E"/>
<path d="M8.66646 407.034C7.02317 406.905 5.81073 405.462 5.95969 403.812C6.06177 402.157 7.70268 401.032 9.30621 401.255C10.9661 401.486 11.9803 402.908 11.8907 404.463C11.7536 406.013 10.3097 407.164 8.66646 407.034Z" fill="#1A1A5E"/>
<path d="M8.27178 419.81C6.59764 419.876 5.20954 418.585 5.25761 416.926C5.27482 415.267 6.62612 413.956 8.27356 413.997C9.92101 414.038 11.2444 415.33 11.2266 416.883C11.1774 418.436 9.89193 419.745 8.27178 419.81Z" fill="#1A1A5E"/>
<path d="M9.61593 432.526C7.99222 432.801 6.47356 431.691 6.22668 430.044C5.9798 428.398 7.11212 426.934 8.75126 426.773C10.3916 426.611 11.9096 427.722 12.1411 429.255C12.3714 430.786 11.2396 432.252 9.61593 432.526Z" fill="#1A1A5E"/>
<path d="M12.6719 444.953C11.1004 445.437 9.4156 444.54 8.91057 442.952C8.4174 441.359 9.49097 439.721 11.0684 439.356C12.6974 438.977 14.2013 439.921 14.6636 441.402C15.136 442.879 14.2434 444.47 12.6719 444.953Z" fill="#1A1A5E"/>
<path d="M17.3616 456.887C15.9011 457.552 13.9843 456.938 13.3896 455.378C12.7605 453.833 13.4988 452.11 15.0371 451.534C16.5753 450.958 18.2969 451.658 18.8809 453.099C19.4298 454.556 18.8874 456.195 17.3616 456.887Z" fill="#1A1A5E"/>
<path d="M23.5643 468.157C22.1466 469.024 20.3436 468.543 19.4902 467.107C18.6434 465.668 19.1324 463.883 20.5816 463.119C22.0314 462.355 23.851 462.828 24.6444 464.175C25.442 465.521 24.9364 467.316 23.5643 468.157Z" fill="#1A1A5E"/>
<path d="M31.1611 478.589C29.8739 479.59 27.9938 479.337 26.9636 478.024C25.9351 476.708 26.1879 474.894 27.5404 473.964C28.8793 473.042 30.7647 473.292 31.7344 474.531C32.7065 475.77 32.4489 477.587 31.1611 478.589Z" fill="#1A1A5E"/>
<path d="M39.8502 488.175C38.6728 489.298 36.7636 489.25 35.5862 488.066C34.388 486.902 34.556 484.969 35.7737 483.927C37.0307 482.848 38.8152 483.004 39.9558 484.108C41.0745 485.231 41.027 487.052 39.8502 488.175Z" fill="#1A1A5E"/>
<path d="M49.4238 496.929C48.3686 498.135 46.409 498.323 45.1794 497.195C43.9396 496.077 43.8488 494.222 44.9752 493.051C46.1016 491.879 47.9722 491.793 49.1526 492.858C50.3229 493.935 50.5075 495.691 49.4238 496.929Z" fill="#1A1A5E"/>
<path d="M59.7233 504.87C58.759 506.172 56.889 506.423 55.5478 505.432C54.2059 504.441 53.9454 502.615 54.965 501.354C55.9845 500.093 57.8539 499.841 59.14 500.791C60.4266 501.742 60.6871 503.569 59.7233 504.87Z" fill="#1A1A5E"/>
<path d="M70.6476 511.975C69.7818 513.34 67.9272 513.74 66.5053 512.868C65.0727 512.013 64.6887 510.188 65.6139 508.845C66.5249 507.523 68.3545 507.159 69.7355 507.982C71.1058 508.823 71.5141 510.61 70.6476 511.975Z" fill="#1A1A5E"/>
<path d="M82.0289 518.365C81.2598 519.774 79.4165 520.331 77.9501 519.539C76.4949 518.725 75.9822 516.937 76.8041 515.547C77.6272 514.157 79.4337 513.667 80.8379 514.453C82.2556 515.22 82.8069 516.941 82.0289 518.365Z" fill="#1A1A5E"/>
<path d="M93.7894 524.07C93.1057 525.53 91.326 526.142 89.8144 525.437C88.3041 524.731 87.672 522.993 88.4038 521.555C89.1355 520.117 90.9147 519.506 92.3787 520.189C93.8422 520.873 94.4737 522.611 93.7894 524.07Z" fill="#1A1A5E"/>
<path d="M105.892 529.053C105.292 530.547 103.545 531.271 101.99 530.668C100.429 530.08 99.7054 528.358 100.353 526.874C100.995 525.405 102.726 524.717 104.242 525.287C105.753 525.872 106.491 527.558 105.892 529.053Z" fill="#1A1A5E"/>
<path d="M118.246 533.409C117.733 534.924 116.015 535.778 114.437 535.237C112.862 534.686 112.041 533.014 112.601 531.505C113.162 529.997 114.857 529.208 116.386 529.746C117.92 530.271 118.765 531.877 118.246 533.409Z" fill="#1A1A5E"/>
<path d="M130.814 537.14C130.382 538.688 128.728 539.575 127.122 539.121C125.515 538.666 124.6 537.051 125.078 535.515C125.556 533.98 127.209 533.094 128.77 533.536C130.332 533.977 131.247 535.592 130.814 537.14Z" fill="#1A1A5E"/>
<path d="M143.589 540.134C143.255 541.706 141.651 542.699 140.007 542.353C138.361 542.017 137.357 540.457 137.755 538.884C138.147 537.341 139.749 536.366 141.331 536.688C142.912 537.019 143.923 538.563 143.589 540.134Z" fill="#1A1A5E"/>
<path d="M156.52 542.406C156.272 544.002 154.734 545.099 153.088 544.804C151.44 544.526 150.34 543.02 150.629 541.44C150.919 539.861 152.453 538.8 154.055 539.071C155.655 539.358 156.764 540.829 156.52 542.406Z" fill="#1A1A5E"/>
<path d="M169.549 544.059C169.365 545.655 167.874 546.806 166.219 546.631C164.565 546.445 163.404 544.948 163.619 543.365C163.837 541.766 165.317 540.681 166.94 540.863C168.566 541.034 169.734 542.465 169.549 544.059Z" fill="#1A1A5E"/>
<path d="M182.63 545.293C182.496 546.893 181.045 548.084 179.388 547.954C177.731 547.831 176.517 546.419 176.677 544.812C176.835 543.225 178.284 542.045 179.916 542.166C181.548 542.295 182.763 543.694 182.63 545.293Z" fill="#1A1A5E"/>
<path d="M195.741 546.16C195.652 547.762 194.236 548.99 192.577 548.903C190.919 548.816 189.664 547.448 189.776 545.847C189.887 544.246 191.304 543.018 192.939 543.104C194.575 543.189 195.829 544.558 195.741 546.16Z" fill="#1A1A5E"/>
<path d="M208.869 546.695C208.822 548.298 207.438 549.562 205.778 549.516C204.119 549.471 202.829 548.133 202.898 546.53C202.967 544.927 204.35 543.664 205.989 543.709C207.628 543.754 208.917 545.091 208.869 546.695Z" fill="#1A1A5E"/>
<path d="M222.008 546.922C221.999 548.526 220.647 549.823 218.987 549.819C217.327 549.816 216.005 548.508 216.035 546.893C216.063 545.3 217.416 544.005 219.055 544.008C220.694 544.013 222.017 545.317 222.008 546.922Z" fill="#1A1A5E"/>
<path d="M235.15 546.857C235.179 548.46 233.858 549.792 232.199 549.828C230.539 549.88 229.187 548.534 229.177 546.943C229.168 545.326 230.489 544.07 232.129 544.018C233.768 543.981 235.121 545.252 235.15 546.857Z" fill="#1A1A5E"/>
<path d="M248.287 546.511C248.352 548.105 247.063 549.499 245.405 549.535C243.745 549.573 242.363 548.302 242.316 546.699C242.269 545.095 243.561 543.765 245.201 543.729C246.84 543.693 248.219 544.899 248.287 546.511Z" fill="#1A1A5E"/>
<path d="M261.413 545.885C261.516 547.486 260.256 548.848 258.598 548.928C256.941 549.007 255.529 547.772 255.446 546.169C255.362 544.568 256.623 543.204 258.26 543.127C259.898 543.048 261.309 544.284 261.413 545.885Z" fill="#1A1A5E"/>
<path d="M274.517 544.919C274.658 546.518 273.43 547.914 271.775 548.036C270.121 548.159 268.681 546.962 268.56 545.362C268.44 543.762 269.668 542.366 271.302 542.244C272.936 542.123 274.376 543.321 274.517 544.919Z" fill="#1A1A5E"/>
<path d="M287.595 543.673C287.773 545.268 286.581 546.698 284.93 546.866C283.279 547.036 281.812 545.877 281.654 544.281C281.496 542.683 282.689 541.255 284.32 541.087C285.95 540.92 287.416 542.078 287.595 543.673Z" fill="#1A1A5E"/>
<path d="M300.643 542.147C300.861 543.738 299.704 545.203 298.058 545.42C296.413 545.637 294.92 544.521 294.723 542.928C294.527 541.335 295.685 539.869 297.309 539.655C298.932 539.441 300.425 540.557 300.643 542.147Z" fill="#1A1A5E"/>
<path d="M313.652 540.34C313.91 541.924 312.79 543.428 311.152 543.693C309.507 543.91 307.982 542.799 307.746 541.211C307.51 539.623 308.635 538.162 310.26 537.947C311.876 537.686 313.395 538.754 313.652 540.34Z" fill="#1A1A5E"/>
<path d="M326.613 538.222C326.912 539.8 325.825 541.296 324.187 541.565C322.549 541.832 320.998 540.767 320.721 539.185C320.445 537.603 321.53 536.107 323.145 535.843C324.762 535.579 326.314 536.644 326.613 538.222Z" fill="#1A1A5E"/>
<path d="M339.498 535.707C339.84 537.277 338.796 538.81 337.168 539.132C335.54 539.453 333.962 538.438 333.643 536.864C333.325 535.289 334.368 533.755 335.973 533.438C337.578 533.121 339.156 534.137 339.498 535.707Z" fill="#1A1A5E"/>
<path d="M352.313 532.88C352.7 534.439 351.704 536.012 350.087 536.391C348.471 536.77 346.868 535.808 346.506 534.242C346.143 532.677 347.14 531.106 348.732 530.732C350.323 530.359 351.926 531.32 352.313 532.88Z" fill="#1A1A5E"/>
<path d="M365.05 529.737C365.483 531.285 364.537 532.897 362.936 533.337C361.34 533.79 359.684 532.783 359.281 531.245C358.868 529.674 359.843 528.164 361.414 527.718C362.988 527.285 364.617 528.188 365.05 529.737Z" fill="#1A1A5E"/>
<path d="M377.696 526.256C378.178 527.791 377.271 529.392 375.671 529.833C374.071 530.273 372.404 529.38 371.948 527.838C371.492 526.296 372.399 524.695 373.974 524.262C375.547 523.829 377.214 524.722 377.696 526.256Z" fill="#1A1A5E"/>
<path d="M390.185 522.273C390.718 523.791 389.869 525.432 388.288 525.938C386.708 526.444 385.015 525.616 384.509 524.089C384.004 522.562 384.853 520.921 386.406 520.424C387.96 519.926 389.652 520.755 390.185 522.273Z" fill="#1A1A5E"/>
<path d="M402.539 517.921C403.127 519.42 402.341 521.102 400.785 521.678C399.227 522.252 397.513 521.495 396.955 519.985C396.397 518.475 397.183 516.794 398.71 516.229C400.238 515.664 401.952 516.422 402.539 517.921Z" fill="#1A1A5E"/>
<path d="M414.745 513.188C415.389 514.666 414.672 516.39 413.145 517.039C411.629 517.718 409.846 516.913 409.24 515.443C408.619 513.935 409.389 512.332 410.872 511.666C412.367 511.029 414.101 511.711 414.745 513.188Z" fill="#1A1A5E"/>
<path d="M426.787 508.063C427.489 509.515 426.819 511.219 425.292 511.87C423.766 512.52 421.983 511.858 421.313 510.393C420.643 508.927 421.312 507.223 422.808 506.586C424.303 505.95 426.085 506.611 426.787 508.063Z" fill="#1A1A5E"/>
<path d="M438.53 502.321C439.294 503.743 438.705 505.487 437.214 506.216C435.723 506.944 433.922 506.37 433.192 504.932C432.461 503.493 433.05 501.75 434.508 501.037C435.966 500.324 437.767 500.9 438.53 502.321Z" fill="#1A1A5E"/>
<path d="M450.03 496.138C450.859 497.525 450.357 499.308 448.911 500.121C447.465 500.932 445.649 500.45 444.855 499.043C444.062 497.636 444.564 495.853 445.976 495.06C447.387 494.268 449.202 494.75 450.03 496.138Z" fill="#1A1A5E"/>
<path d="M461.261 489.503C462.154 490.851 461.749 492.671 460.356 493.57C458.979 494.497 457.099 494.023 456.241 492.652C455.384 491.282 455.846 489.551 457.185 488.648C458.542 487.771 460.367 488.154 461.261 489.503Z" fill="#1A1A5E"/>
<path d="M472.191 482.403C473.167 483.727 472.834 485.538 471.432 486.424C470.039 487.324 468.16 486.976 467.235 485.648C466.31 484.319 466.66 482.534 468.017 481.659C469.384 480.796 471.245 481.12 472.191 482.403Z" fill="#1A1A5E"/>
<path d="M482.635 474.637C483.665 475.889 483.423 477.706 482.093 478.694C480.764 479.683 478.881 479.447 477.887 478.166C476.893 476.886 477.135 475.07 478.427 474.109C479.721 473.149 481.605 473.385 482.635 474.637Z" fill="#1A1A5E"/>
<path d="M492.641 466.353C493.741 467.547 493.616 469.392 492.361 470.471C491.106 471.55 489.228 471.431 488.165 470.204C487.102 468.978 487.227 467.134 488.445 466.086C489.661 465.039 491.54 465.158 492.641 466.353Z" fill="#1A1A5E"/>
<path d="M502.198 457.584C503.367 458.715 503.368 460.581 502.2 461.75C501.037 462.925 499.166 462.92 498.012 461.732C496.902 460.587 496.907 458.728 498.033 457.59C499.164 456.455 501.028 456.453 502.198 457.584Z" fill="#1A1A5E"/>
<path d="M511.274 448.336C512.506 449.394 512.679 451.309 511.479 452.449C510.311 453.62 508.393 453.678 507.191 452.578C505.991 451.478 505.935 449.669 507.066 448.536C508.232 447.432 510.033 447.271 511.274 448.336Z" fill="#1A1A5E"/>
<path d="M519.646 438.476C520.947 439.461 521.136 441.28 520.068 442.539C519 443.797 517.107 443.985 515.84 442.959C514.573 441.932 514.385 440.113 515.418 438.896C516.452 437.678 518.346 437.491 519.646 438.476Z" fill="#1A1A5E"/>
<path d="M527.345 428.118C528.707 429.021 529.035 430.842 528.077 432.183C527.12 433.523 525.266 433.842 523.936 432.894C522.606 431.946 522.279 430.125 523.203 428.828C524.129 427.532 525.983 427.214 527.345 428.118Z" fill="#1A1A5E"/>
<path d="M534.44 417.362C535.858 418.181 536.329 419.993 535.492 421.408C534.66 422.826 532.855 423.272 531.435 422.387C530.079 421.542 529.608 419.73 530.412 418.36C531.219 416.99 533.022 416.544 534.44 417.362Z" fill="#1A1A5E"/>
<path d="M540.936 406.244C542.432 406.989 542.991 408.752 542.134 410.157C541.298 411.574 539.453 412.09 538.011 411.312C536.57 410.535 536.057 408.795 536.865 407.426C537.696 406.068 539.497 405.529 540.936 406.244Z" fill="#1A1A5E"/>
<path d="M546.467 394.639C547.978 395.28 548.631 397.001 547.926 398.481C547.22 399.962 545.441 400.604 543.953 399.914C542.464 399.225 541.811 397.505 542.494 396.073C543.177 394.641 544.956 393.999 546.467 394.639Z" fill="#1A1A5E"/>
<path d="M551.321 382.763C552.869 383.313 553.661 385.003 553.09 386.537C552.519 388.071 550.816 388.829 549.287 388.23C547.757 387.632 546.965 385.941 547.517 384.455C548.07 382.969 549.773 382.212 551.321 382.763Z" fill="#1A1A5E"/>
<path d="M555.596 370.672C557.155 371.128 558.146 372.798 557.625 374.345C557.055 375.88 555.326 376.71 553.762 376.201C552.199 375.692 551.381 374.075 551.934 372.59C552.441 371.089 553.999 370.204 555.596 370.672Z" fill="#1A1A5E"/>
<path d="M558.996 358.315C560.599 358.69 561.548 360.271 561.114 361.845C560.682 363.419 559.04 364.354 557.45 363.933C555.86 363.511 554.912 361.931 555.332 360.403C555.753 358.875 557.393 357.941 558.996 358.315Z" fill="#1A1A5E"/>
<path d="M561.878 345.838C563.497 346.139 564.539 347.673 564.205 349.265C563.87 350.857 562.293 351.873 560.681 351.535C559.071 351.198 558.029 349.664 558.355 348.11C558.681 346.555 560.259 345.538 561.878 345.838Z" fill="#1A1A5E"/>
<path d="M564.115 333.233C565.76 333.471 566.852 334.961 566.576 336.561C566.299 338.162 564.756 339.239 563.132 338.969C561.507 338.698 560.41 337.208 560.681 335.642C560.953 334.075 562.499 332.998 564.115 333.233Z" fill="#1A1A5E"/>
<path d="M565.822 320.548C567.448 320.729 568.673 322.186 568.447 323.792C568.222 325.398 566.716 326.53 565.082 326.319C563.447 326.108 562.301 324.658 562.522 323.083C562.745 321.507 564.174 320.366 565.822 320.548Z" fill="#1A1A5E"/>
<path d="M567.095 307.816C568.737 307.945 569.966 309.358 569.84 310.974C569.702 312.587 568.205 313.765 566.573 313.609C564.924 313.451 563.759 312.044 563.894 310.458C564.018 308.87 565.451 307.688 567.095 307.816Z" fill="#1A1A5E"/>
<path d="M567.955 295.052C569.601 295.132 570.871 296.507 570.791 298.124C570.727 299.741 569.285 300.965 567.638 300.859C565.995 300.754 564.769 299.382 564.833 297.79C564.911 296.198 566.309 294.973 567.955 295.052Z" fill="#1A1A5E"/>
<path d="M568.425 282.268C570.072 282.301 571.381 283.638 571.346 285.256C571.31 286.875 569.952 288.139 568.299 288.082C566.657 288.025 565.345 286.687 565.38 285.095C565.414 283.501 566.777 282.236 568.425 282.268Z" fill="#1A1A5E"/>
<path d="M568.516 269.476C570.164 269.463 571.508 270.763 571.519 272.381C571.528 273.999 570.202 275.302 568.553 275.291C566.905 275.281 565.561 273.98 565.55 272.387C565.539 270.793 566.867 269.49 568.516 269.476Z" fill="#1A1A5E"/>
<path d="M568.23 256.688C569.878 256.628 571.258 257.891 571.313 259.508C571.368 261.125 570.077 262.465 568.43 262.5C566.782 262.535 565.401 261.272 565.347 259.679C565.293 258.086 566.583 256.746 568.23 256.688Z" fill="#1A1A5E"/>
<path d="M567.575 243.912C569.219 243.806 570.635 245.031 570.736 246.645C570.835 248.261 569.582 249.635 567.936 249.716C566.289 249.797 564.875 248.572 564.776 246.982C564.677 245.391 565.93 244.017 567.575 243.912Z" fill="#1A1A5E"/>
<path d="M566.543 231.158C568.184 231.007 569.632 232.191 569.779 233.803C569.925 235.415 568.711 236.824 567.068 236.951C565.425 237.077 563.977 235.893 563.833 234.306C563.688 232.719 564.902 231.31 566.543 231.158Z" fill="#1A1A5E"/>
<path d="M565.127 218.441C566.763 218.242 568.246 219.383 568.439 220.991C568.632 222.599 567.461 224.043 565.822 224.216C564.184 224.389 562.701 223.248 562.511 221.666C562.32 220.084 563.492 218.64 565.127 218.441Z" fill="#1A1A5E"/>
<path d="M563.317 205.771C564.944 205.522 566.461 206.619 566.703 208.222C566.945 209.824 565.818 211.303 564.185 211.524C562.553 211.746 561.036 210.649 560.799 209.074C560.56 207.498 561.688 206.02 563.317 205.771Z" fill="#1A1A5E"/>
<path d="M561.092 193.163C562.711 192.862 564.261 193.912 564.553 195.507C564.846 197.101 563.766 198.615 562.143 198.888C560.518 199.161 558.968 198.111 558.681 196.545C558.393 194.978 559.472 193.464 561.092 193.163Z" fill="#1A1A5E"/>
<path d="M558.431 180.636C560.038 180.28 561.621 181.276 561.968 182.862C562.313 184.448 561.285 185.998 559.672 186.324C558.057 186.651 556.474 185.654 556.135 184.098C555.796 182.542 556.824 180.992 558.431 180.636Z" fill="#1A1A5E"/>
<path d="M555.305 168.21C556.897 167.795 558.514 168.734 558.917 170.309C559.318 171.883 558.347 173.47 556.746 173.854C555.145 174.238 553.529 173.299 553.136 171.756C552.742 170.214 553.713 168.626 555.305 168.21Z" fill="#1A1A5E"/>
<path d="M551.652 155.922C553.238 155.438 554.918 156.305 555.366 157.869C555.828 159.43 554.918 161.055 553.335 161.501C551.751 161.947 550.102 161.072 549.65 159.546C549.214 158.015 550.092 156.399 551.652 155.922Z" fill="#1A1A5E"/>
<path d="M547.432 143.808C548.964 143.261 550.75 144.031 551.273 145.575C551.799 147.118 550.958 148.785 549.398 149.298C547.836 149.812 546.154 149.008 545.642 147.502C545.132 145.996 545.869 144.366 547.432 143.808Z" fill="#1A1A5E"/>
<path d="M542.604 131.912C544.119 131.281 545.888 131.982 546.555 133.478C547.215 134.976 546.405 136.703 544.887 137.285C543.338 137.879 541.674 137.134 541.033 135.68C540.385 134.23 541.088 132.543 542.604 131.912Z" fill="#1A1A5E"/>
<path d="M537.11 120.295C538.584 119.577 540.385 120.18 541.129 121.644C541.877 123.106 541.267 124.834 539.749 125.513C538.271 126.172 536.471 125.569 535.747 124.156C535.026 122.743 535.637 121.015 537.11 120.295Z" fill="#1A1A5E"/>
<path d="M530.885 109.034C532.305 108.218 534.129 108.71 534.96 110.133C535.791 111.556 535.288 113.327 533.838 114.089C532.387 114.85 530.562 114.359 529.762 112.99C528.964 111.621 529.466 109.85 530.885 109.034Z" fill="#1A1A5E"/>
<path d="M523.854 98.2302C525.202 97.3064 527.044 97.671 527.967 99.0447C528.889 100.418 528.511 102.233 527.123 103.097C525.735 103.963 523.893 103.598 523.011 102.283C522.129 100.969 522.507 99.1539 523.854 98.2302Z" fill="#1A1A5E"/>
<path d="M515.799 88.1313C517.04 87.0944 518.997 87.2266 520.07 88.5011C521.09 89.813 520.858 91.6715 519.552 92.6502C518.247 93.6294 516.402 93.4098 515.433 92.1597C514.415 90.9523 514.538 89.1839 515.799 88.1313Z" fill="#1A1A5E"/>
<path d="M506.761 78.8585C507.886 77.6864 509.793 77.665 511.019 78.8135C512.241 79.966 512.277 81.7771 511.058 82.8973C509.88 83.9793 507.958 84.014 506.809 82.9331C505.656 81.8557 505.635 80.0313 506.761 78.8585Z" fill="#1A1A5E"/>
<path d="M496.734 70.6061C497.698 69.3045 499.561 69.0902 500.894 70.1272C502.227 71.1653 502.453 73.0076 501.397 74.2404C500.342 75.4733 498.478 75.6882 497.237 74.7194C495.994 73.7494 495.77 71.9071 496.734 70.6061Z" fill="#1A1A5E"/>
<path d="M485.557 63.9036C486.32 62.4813 488.176 61.9446 489.702 62.7089C491.188 63.5351 491.607 65.4334 490.744 66.7754C489.858 68.1538 488.106 68.5126 486.732 67.7489C485.321 67.0487 484.796 65.3265 485.557 63.9036Z" fill="#1A1A5E"/>
<path d="M473.539 58.7745C474.07 57.2557 475.801 56.5047 477.408 57.1009C479.013 57.6971 479.779 59.3747 479.121 60.8456C478.463 62.3164 476.73 63.0674 475.253 62.5198C473.775 61.9715 473.009 60.2945 473.539 58.7745Z" fill="#1A1A5E"/>
<path d="M460.854 55.5133C461.135 53.9524 462.762 52.7669 464.413 53.2453C466.078 53.6601 467.088 55.2574 466.671 56.8097C466.254 58.362 464.674 59.3089 463.144 58.923C461.627 58.4724 460.566 57.113 460.854 55.5133Z" fill="#1A1A5E"/>
<path d="M447.797 54.2334C447.838 52.6297 449.262 51.3715 450.975 51.4258C452.694 51.4235 453.929 52.9376 453.757 54.5396C453.586 56.1289 452.179 57.2132 450.59 57.2236C449.006 57.1774 447.755 55.8371 447.797 54.2334Z" fill="#1A1A5E"/>
<path d="M434.683 54.7177C434.472 53.1261 435.688 51.7263 437.402 51.5923C439.116 51.46 440.564 52.6541 440.638 54.2573C440.71 55.8598 439.493 57.2602 437.918 57.3815C436.344 57.5028 434.894 56.3081 434.683 54.7177Z" fill="#1A1A5E"/>
<path d="M421.843 57.3356C421.373 55.7971 422.325 54.1484 423.968 53.6579C425.657 53.3361 427.295 54.3517 427.628 55.9231C427.961 57.495 426.974 59.0051 425.424 59.2928C423.916 59.7498 422.312 58.8734 421.843 57.3356Z" fill="#1A1A5E"/>
<path d="M409.549 61.8087C408.844 60.3586 409.55 58.6475 411.127 57.9895C412.704 57.332 414.457 58.0178 415.039 59.5181C415.622 61.019 414.917 62.7295 413.461 63.3373C412.006 63.9445 410.253 63.2587 409.549 61.8087Z" fill="#1A1A5E"/>
<path d="M398.074 68.0092C397.186 66.6764 397.576 64.7954 399.033 63.9358C400.532 63.1322 402.395 63.6209 403.195 65.0242C403.993 66.4274 403.512 68.1681 402.117 68.9104C400.757 69.7134 398.979 69.3691 398.074 68.0092Z" fill="#1A1A5E"/>
<path d="M387.461 75.5369C386.414 74.2977 386.644 72.4641 387.975 71.441C389.306 70.419 391.176 70.6403 392.15 71.9349C393.123 73.2295 392.893 75.0632 391.635 76.0303C390.378 76.9979 388.508 76.7767 387.461 75.5369Z" fill="#1A1A5E"/>
<path d="M377.671 84.0606C376.514 82.9185 376.508 81.0248 377.782 79.941C379.032 78.8347 380.94 78.9058 382.041 80.0987C383.144 81.2923 383.072 83.1126 381.879 84.1658C380.665 85.1947 378.829 85.2028 377.671 84.0606Z" fill="#1A1A5E"/>
<path d="M368.668 93.3758C367.43 92.3168 367.326 90.4647 368.435 89.24C369.524 87.9979 371.46 87.9482 372.661 89.0528C373.857 90.1516 373.902 91.946 372.851 93.1487C371.778 94.3336 369.906 94.4347 368.668 93.3758Z" fill="#1A1A5E"/>
<path d="M360.25 103.196C358.953 102.207 358.752 100.377 359.802 99.1098C360.853 97.8423 362.733 97.6459 364.001 98.6707C365.269 99.6956 365.469 101.526 364.448 102.758C363.427 103.99 361.548 104.186 360.25 103.196Z" fill="#1A1A5E"/>
<path d="M352.354 113.42C351.013 112.485 350.693 110.646 351.706 109.355C352.706 108.054 354.585 107.78 355.903 108.744C357.221 109.707 357.498 111.518 356.521 112.789C355.531 114.05 353.692 114.354 352.354 113.42Z" fill="#1A1A5E"/>
<path d="M344.878 123.941C343.508 123.049 343.146 121.234 344.069 119.888C344.981 118.537 346.887 118.221 348.232 119.129C349.595 120.05 349.904 121.824 349.003 123.157C348.095 124.482 346.248 124.834 344.878 123.941Z" fill="#1A1A5E"/>
<path d="M337.69 134.65C336.299 133.789 335.897 131.988 336.792 130.629C337.687 129.27 339.531 128.877 340.912 129.753C342.293 130.63 342.695 132.432 341.809 133.776C340.925 135.121 339.08 135.512 337.69 134.65Z" fill="#1A1A5E"/>
<path d="M330.708 145.489C329.304 144.648 328.875 142.856 329.749 141.488C330.623 140.119 332.465 139.7 333.862 140.551C335.259 141.401 335.689 143.192 334.821 144.551C333.953 145.91 332.111 146.329 330.708 145.489Z" fill="#1A1A5E"/>
<path d="M323.863 156.409C322.454 155.578 321.999 153.789 322.862 152.416C323.723 151.042 325.561 150.606 326.968 151.441C328.375 152.277 328.82 154.064 327.963 155.432C327.105 156.799 325.273 157.241 323.863 156.409Z" fill="#1A1A5E"/>
<path d="M317.059 167.354C315.65 166.523 315.198 164.737 316.053 163.365C316.907 161.993 318.743 161.55 320.153 162.38C321.562 163.211 322.016 164.996 321.16 166.371C320.304 167.747 318.469 168.186 317.059 167.354Z" fill="#1A1A5E"/>
<path d="M310.213 178.275C308.81 177.433 308.371 175.643 309.232 174.279C310.092 172.915 311.932 172.485 313.339 173.32C314.747 174.155 315.186 175.944 314.32 177.316C313.454 178.689 311.615 179.118 310.213 178.275Z" fill="#1A1A5E"/>
<path d="M303.245 189.121C301.856 188.256 301.439 186.46 302.314 185.107C303.189 183.754 305.03 183.349 306.427 184.2C307.824 185.052 308.24 186.85 307.358 188.215C306.475 189.581 304.633 189.986 303.245 189.121Z" fill="#1A1A5E"/>
<path d="M296.02 199.807C294.652 198.903 294.309 197.118 295.217 195.793C296.112 194.458 297.956 194.09 299.334 194.97C300.712 195.851 301.092 197.662 300.183 199.015C299.261 200.362 297.379 200.707 296.02 199.807Z" fill="#1A1A5E"/>
<path d="M288.444 210.26C287.12 209.305 286.824 207.493 287.785 206.212C288.745 204.931 290.62 204.643 291.965 205.563C293.317 206.488 293.61 208.299 292.626 209.612C291.64 210.925 289.769 211.215 288.444 210.26Z" fill="#1A1A5E"/>
<path d="M280.401 220.374C279.149 219.362 278.93 217.52 279.936 216.28C280.941 215.039 282.811 214.832 284.112 215.818C285.412 216.804 285.625 218.641 284.586 219.922C283.548 221.201 281.684 221.412 280.401 220.374Z" fill="#1A1A5E"/>
<path d="M271.61 229.878C270.434 228.754 270.388 226.931 271.507 225.807C272.649 224.705 274.472 224.575 275.708 225.65C276.931 226.713 277.07 228.61 275.869 229.772C274.693 230.955 272.786 231.002 271.61 229.878Z" fill="#1A1A5E"/>
<path d="M261.999 238.589C260.976 237.365 261.137 235.569 262.302 234.498C263.487 233.455 265.357 233.566 266.477 234.744C267.596 235.921 267.48 237.775 266.217 238.885C264.977 240.018 263.055 239.855 261.999 238.589Z" fill="#1A1A5E"/>
<path d="M251.251 245.927C250.425 244.538 250.835 242.75 252.168 241.936C253.501 241.121 255.357 241.525 256.309 242.835C257.262 244.144 256.852 245.932 255.391 246.826C253.93 247.72 252.076 247.316 251.251 245.927Z" fill="#1A1A5E"/>
<path d="M239.412 251.434C238.804 249.943 239.536 248.257 241.047 247.67C242.556 247.093 244.178 247.665 244.897 249.141C245.592 250.566 244.885 252.445 243.324 253.042C241.771 253.646 240.02 252.926 239.412 251.434Z" fill="#1A1A5E"/>
<path d="M227.1 255.908C226.554 254.382 227.385 252.769 228.909 252.206C230.439 251.658 232.145 252.432 232.72 253.936C233.294 255.44 232.491 257.114 230.926 257.676C229.364 258.252 227.639 257.412 227.1 255.908Z" fill="#1A1A5E"/>
<path d="M214.625 259.926C214.133 258.395 214.998 256.758 216.557 256.27C218.114 255.783 219.796 256.623 220.312 258.147C220.828 259.672 219.963 261.309 218.38 261.804C216.798 262.298 215.116 261.458 214.625 259.926Z" fill="#1A1A5E"/>
<path d="M202.038 263.605C201.581 262.064 202.487 260.453 204.063 260.008C205.642 259.569 207.294 260.428 207.769 261.967C208.243 263.501 207.342 265.138 205.749 265.582C204.157 266.032 202.496 265.147 202.038 263.605Z" fill="#1A1A5E"/>
<path d="M189.391 267.083C188.952 265.535 189.887 263.944 191.469 263.508C193.051 263.075 194.698 263.977 195.145 265.521C195.592 267.065 194.662 268.67 193.069 269.105C191.476 269.545 189.828 268.629 189.391 267.083Z" fill="#1A1A5E"/>
<path d="M176.714 270.442C176.283 268.893 177.225 267.299 178.817 266.88C180.409 266.46 182.049 267.376 182.479 268.924C182.91 270.473 181.968 272.069 180.375 272.488C178.783 272.907 177.144 271.992 176.714 270.442Z" fill="#1A1A5E"/>
<path d="M164.025 273.787C163.591 272.239 164.532 270.641 166.126 270.218C167.719 269.798 169.36 270.715 169.79 272.263C170.221 273.812 169.279 275.407 167.687 275.826C166.099 276.248 164.459 275.335 164.025 273.787Z" fill="#1A1A5E"/>
<path d="M151.359 277.196C150.91 275.652 151.838 274.051 153.432 273.618C155.026 273.186 156.674 274.089 157.113 275.635C157.553 277.182 156.623 278.784 155.039 279.214C153.455 279.643 151.807 278.74 151.359 277.196Z" fill="#1A1A5E"/>
<path d="M138.743 280.78C138.267 279.244 139.167 277.623 140.757 277.159C142.344 276.69 144.008 277.584 144.468 279.123C144.929 280.665 144.02 282.267 142.45 282.731C140.878 283.189 139.219 282.316 138.743 280.78Z" fill="#1A1A5E"/>
<path d="M126.201 284.601C125.686 283.08 126.543 281.415 128.13 280.938C129.713 280.452 131.397 281.299 131.89 282.83C132.383 284.362 131.516 285.991 129.954 286.471C128.387 286.941 126.717 286.128 126.201 284.601Z" fill="#1A1A5E"/>
<path d="M113.78 288.778C113.212 287.272 114.024 285.608 115.593 285.063C117.161 284.518 118.868 285.305 119.405 286.822C119.942 288.339 119.131 290.002 117.592 290.537C116.054 291.072 114.347 290.285 113.78 288.778Z" fill="#1A1A5E"/>
<path d="M101.532 293.415C100.9 291.934 101.636 290.227 103.179 289.603C104.729 288.998 106.48 289.754 107.074 291.246C107.673 292.746 106.915 294.404 105.402 294.995C103.899 295.604 102.167 294.897 101.532 293.415Z" fill="#1A1A5E"/>
<path d="M89.5164 298.588C88.7977 297.13 89.447 295.392 90.9757 294.73C92.5003 294.058 94.2789 294.702 94.9478 296.168C95.6166 297.635 94.9578 299.353 93.4772 300.006C91.9917 300.649 90.2238 300.023 89.5164 298.588Z" fill="#1A1A5E"/>
<path d="M77.8467 304.467C77.0378 303.069 77.5772 301.302 79.0532 300.52C80.5291 299.738 82.338 300.26 83.0934 301.686C83.8483 303.112 83.3083 304.881 81.8863 305.635C80.4644 306.388 78.6556 305.865 77.8467 304.467Z" fill="#1A1A5E"/>
<path d="M66.6392 311.138C65.7205 309.806 66.1128 307.988 67.5163 307.078C68.9252 306.176 70.8154 306.642 71.6658 308C72.5323 309.382 72.0783 311.111 70.7305 311.973C69.3893 312.844 67.5579 312.471 66.6392 311.138Z" fill="#1A1A5E"/>
<path d="M56.0285 318.676C55.0001 317.443 55.1751 315.529 56.5514 314.573C57.9074 313.591 59.7958 313.846 60.7685 315.141C61.7417 316.436 61.4848 318.244 60.1928 319.177C58.8789 320.085 57.0778 319.934 56.0285 318.676Z" fill="#1A1A5E"/>
<path d="M46.204 327.165C45.0396 326.028 45.099 324.192 46.3369 323.063C47.5743 321.935 49.468 321.991 50.5635 323.189C51.6603 324.388 51.6009 326.225 50.4312 327.292C49.2609 328.358 47.3678 328.3 46.204 327.165Z" fill="#1A1A5E"/>
<path d="M37.4151 336.666C36.1291 335.663 35.9641 333.815 37.0477 332.541C38.1094 331.247 40.0287 331.132 41.2655 332.222C42.4714 333.285 42.5865 335.091 41.5907 336.31C40.5717 337.511 38.7017 337.669 37.4151 336.666Z" fill="#1A1A5E"/>
<path d="M29.7611 347.051C28.3689 346.2 27.9505 344.359 28.8674 342.966C29.8597 341.622 31.7516 341.291 33.091 342.227C34.4305 343.163 34.7587 344.944 33.8234 346.206C32.9623 347.517 31.1611 347.906 29.7611 347.051Z" fill="#1A1A5E"/>
<path d="M23.3148 358.19C21.8288 357.497 21.2662 355.748 22.0596 354.285C22.8537 352.822 24.6661 352.269 26.1064 353.049C27.5467 353.829 28.1093 355.579 27.3616 356.955C26.6132 358.331 24.8014 358.884 23.3148 358.19Z" fill="#1A1A5E"/>
<path d="M424.728 559.665H441.635V576.571H424.728V559.665Z" fill="#1A1A5E"/>
<path d="M114.308 559.665H131.215V576.571H114.308V559.665Z" fill="#1A1A5E"/>
<path d="M424.728 38.0264H441.635V54.9317H424.728V38.0264Z" fill="#1A1A5E"/>
<path d="M114.308 38.0264H131.215V54.9317H114.308V38.0264Z" fill="#1A1A5E"/>
<path d="M128.914 48.5342H427.029C430.46 48.5342 433.245 51.3159 433.245 54.75V561.719C433.245 565.148 430.46 567.935 427.029 567.935H128.914C125.48 567.935 122.697 565.148 122.697 561.719V54.75C122.697 51.3159 125.48 48.5342 128.914 48.5342Z" fill="white"/>
<path d="M427.03 569.8H128.913C124.458 569.8 120.831 566.175 120.831 561.72V54.7495C120.831 50.2941 124.458 46.6692 128.913 46.6692H427.03C431.486 46.6692 435.113 50.2941 435.113 54.7495V561.72C435.113 566.175 431.486 569.8 427.03 569.8ZM128.913 50.3972C126.514 50.3972 124.564 52.3499 124.564 54.7495V561.72C124.564 564.119 126.514 566.071 128.913 566.071H427.03C429.429 566.071 431.38 564.119 431.38 561.72V54.7495C431.38 52.3499 429.429 50.3972 427.03 50.3972H128.913Z" fill="#1A1A5E"/>
<path d="M355.082 71.811H400.459C405.162 71.811 408.973 75.6255 408.973 80.3256C408.973 85.0308 405.162 88.8447 400.459 88.8447H355.082C350.379 88.8447 346.568 85.0308 346.568 80.3256C346.568 75.6255 350.379 71.811 355.082 71.811Z" fill="#5D5FEF"/>
<path d="M162.513 71.811H324.998C329.7 71.811 333.513 75.6255 333.513 80.3256C333.513 85.0308 329.7 88.8447 324.998 88.8447H162.513C157.811 88.8447 153.999 85.0308 153.999 80.3256C153.999 75.6255 157.811 71.811 162.513 71.811Z" fill="#5D5FEF"/>
<path d="M491.077 335.351L490.712 423.999L99.0354 423.139L99.4008 334.491L491.077 335.351Z" fill="white"/>
<path d="M491.077 335.351L490.712 423.999L99.0354 423.139L99.4008 334.491L491.077 335.351Z" stroke="#1A1A5E" stroke-width="4"/>
<path d="M146.78 410.199L116.493 410.131C111.86 410.121 108.104 406.336 108.123 401.693L108.241 373.341C108.26 368.697 112.047 364.929 116.681 364.94L146.968 365.007C151.601 365.018 155.357 368.802 155.338 373.446L155.22 401.798C155.201 406.441 151.413 410.209 146.78 410.199ZM116.663 369.343C114.452 369.338 112.646 371.136 112.637 373.351L112.519 401.702C112.51 403.917 114.301 405.723 116.512 405.727L146.798 405.795C149.009 405.8 150.815 404.002 150.824 401.788L150.942 373.436C150.951 371.222 149.16 369.416 146.949 369.411L116.663 369.343Z" fill="#1A1A5E"/>
<path d="M207.068 410.354L176.781 410.287C172.148 410.276 168.392 406.491 168.411 401.848L168.529 373.496C168.548 368.852 172.335 365.085 176.969 365.095L207.256 365.162C211.889 365.173 215.645 368.957 215.626 373.601L215.508 401.953C215.489 406.596 211.701 410.365 207.068 410.354ZM176.95 369.498C174.74 369.493 172.934 371.291 172.925 373.506L172.807 401.858C172.798 404.072 174.588 405.878 176.799 405.883L207.086 405.95C209.298 405.955 211.103 404.158 211.112 401.943L211.23 373.591C211.239 371.377 209.449 369.571 207.237 369.566L176.95 369.498Z" fill="#1A1A5E"/>
<path d="M270.212 410.516L239.93 410.449C235.292 410.438 231.537 406.653 231.556 402.01L231.674 373.658C231.693 369.014 235.48 365.246 240.118 365.257L270.4 365.324C275.033 365.335 278.789 369.119 278.77 373.763L278.652 402.115C278.632 406.758 274.845 410.527 270.212 410.516ZM240.099 369.66C237.888 369.655 236.079 371.453 236.07 373.668L235.952 402.02C235.943 404.234 237.737 406.04 239.948 406.045L270.231 406.112C272.442 406.117 274.247 404.32 274.256 402.105L274.374 373.753C274.383 371.539 272.593 369.733 270.382 369.728L240.099 369.66Z" fill="#1A1A5E"/>
<path d="M333.855 410.679L303.568 410.612C298.935 410.602 295.179 406.817 295.199 402.173L295.316 373.821C295.336 369.177 299.123 365.409 303.756 365.42L334.043 365.487C338.677 365.498 342.433 369.282 342.413 373.926L342.296 402.278C342.276 406.922 338.489 410.69 333.855 410.679ZM303.738 369.823C301.527 369.818 299.721 371.616 299.712 373.831L299.594 402.183C299.585 404.397 301.375 406.203 303.587 406.208L333.873 406.275C336.084 406.28 337.89 404.483 337.899 402.268L338.017 373.916C338.026 371.702 336.235 369.896 334.024 369.891L303.738 369.823Z" fill="#1A1A5E"/>
<path d="M364.035 367.777L394.318 367.845C397.747 367.852 400.516 370.641 400.502 374.077L400.384 402.43C400.369 405.864 397.577 408.641 394.149 408.634L363.866 408.566C360.437 408.558 357.671 405.769 357.685 402.334L357.803 373.982C357.817 370.546 360.607 367.769 364.035 367.777Z" fill="#CACBFF"/>
<path d="M427.179 367.939L457.464 368.007C460.893 368.014 463.66 370.803 463.645 374.239L463.528 402.591C463.513 406.026 460.723 408.803 457.295 408.795L427.009 408.728C423.584 408.72 420.815 405.931 420.829 402.496L420.947 374.144C420.961 370.708 423.753 367.931 427.179 367.939Z" fill="#CACBFF"/>
<path d="M334.204 117.363V323.009H99.3433V117.363H334.204Z" fill="white"/>
<path d="M334.204 117.363V323.009H99.3433V117.363H334.204Z" stroke="#1A1A5E" stroke-width="4"/>
<path d="M117.345 143.809H183.731C187.163 143.809 189.946 146.591 189.946 150.025V230.209C189.946 233.644 187.163 236.425 183.731 236.425H117.345C113.911 236.425 111.129 233.644 111.129 230.209V150.025C111.129 146.591 113.911 143.809 117.345 143.809Z" fill="#5D5FEF"/>
<path d="M320.911 151.908H202.311C201.281 151.908 200.445 151.072 200.445 150.043C200.445 149.013 201.281 148.178 202.311 148.178H320.911C321.94 148.178 322.777 149.013 322.777 150.043C322.777 151.072 321.94 151.908 320.911 151.908Z" fill="#5D5FEF"/>
<path d="M320.911 162.721H202.311C201.281 162.721 200.445 161.887 200.445 160.857C200.445 159.827 201.281 158.993 202.311 158.993H320.911C321.94 158.993 322.777 159.827 322.777 160.857C322.777 161.887 321.94 162.721 320.911 162.721Z" fill="#5D5FEF"/>
<path d="M320.911 173.248H202.311C201.281 173.248 200.445 172.413 200.445 171.383C200.445 170.353 201.281 169.519 202.311 169.519H320.911C321.94 169.519 322.777 170.353 322.777 171.383C322.777 172.413 321.94 173.248 320.911 173.248Z" fill="#5D5FEF"/>
<path d="M320.911 184.061H202.311C201.281 184.061 200.445 183.227 200.445 182.197C200.445 181.167 201.281 180.332 202.311 180.332H320.911C321.94 180.332 322.777 181.167 322.777 182.197C322.777 183.227 321.94 184.061 320.911 184.061Z" fill="#5D5FEF"/>
<path d="M320.911 202.13H202.311C201.281 202.13 200.445 201.296 200.445 200.266C200.445 199.236 201.281 198.402 202.311 198.402H320.911C321.94 198.402 322.777 199.236 322.777 200.266C322.777 201.296 321.94 202.13 320.911 202.13Z" fill="#5D5FEF"/>
<path d="M320.911 212.944H202.311C201.281 212.944 200.445 212.11 200.445 211.08C200.445 210.05 201.281 209.216 202.311 209.216H320.911C321.94 209.216 322.777 210.05 322.777 211.08C322.777 212.11 321.94 212.944 320.911 212.944Z" fill="#5D5FEF"/>
<path d="M320.911 223.477H202.311C201.281 223.477 200.445 222.643 200.445 221.613C200.445 220.583 201.281 219.749 202.311 219.749H320.911C321.94 219.749 322.777 220.583 322.777 221.613C322.777 222.643 321.94 223.477 320.911 223.477Z" fill="#5D5FEF"/>
<path d="M320.911 234.288H202.311C201.281 234.288 200.445 233.454 200.445 232.424C200.445 231.394 201.281 230.56 202.311 230.56H320.911C321.94 230.56 322.777 231.394 322.777 232.424C322.777 233.454 321.94 234.288 320.911 234.288Z" fill="#5D5FEF"/>
<path d="M60.3247 292.797L45.148 292.958L50.7809 278.684L60.3247 292.797Z" fill="#1A1A5E"/>
<path d="M368.86 45.9999L363.453 8.57043L396.205 26.7027L368.86 45.9999Z" fill="#1A1A5E"/>
<path d="M9.59633 212.551L8.72838 203.243L45.1824 198.424L46.0512 207.732L9.59633 212.551Z" fill="#5D5FEF"/>
<path d="M24.435 224.33L21.0361 187.875L30.3438 186.645L33.7435 223.1L24.435 224.33Z" fill="#5D5FEF"/>
<path d="M231.651 432.556H342.17C345.602 432.556 348.386 435.337 348.386 438.771V473.298C348.386 476.732 345.602 479.518 342.17 479.518H231.651C228.216 479.518 225.435 476.732 225.435 473.298V438.771C225.435 435.337 228.216 432.556 231.651 432.556Z" fill="#5D5FEF"/>
<path d="M245.696 469.511C245.696 469.511 246.397 472.851 245.189 478.044C244.226 482.192 241.221 486.141 241.221 486.141C241.221 486.141 253.633 483.402 256.976 478.044C260.757 471.979 258.081 467.494 258.081 467.494L245.696 469.511Z" fill="#5D5FEF"/>
<path d="M275.1 492.944H392.664C395.634 492.944 398.042 495.351 398.042 498.322V539.136C398.042 542.108 395.634 544.515 392.664 544.515H275.1C272.129 544.515 269.723 542.108 269.723 539.136V498.322C269.723 495.351 272.129 492.944 275.1 492.944Z" fill="#1A1A5E"/>
<path d="M376.896 533.524C376.896 533.524 376.163 537.193 377.424 542.888C378.432 547.437 381.564 551.776 381.564 551.776C381.564 551.776 368.612 548.768 365.124 542.888C361.176 536.235 363.969 531.307 363.969 531.307L376.896 533.524Z" fill="#1A1A5E"/>
<path d="M194.73 489.358C197.614 490.15 202.508 486.858 207.171 481.997C211.836 477.141 210.023 472.301 209.967 467.996C209.912 463.696 214.08 442.837 210.541 437.123C207.004 431.415 191.383 415.54 182.163 419.308C172.943 423.076 172.775 438.823 175.844 443.45C178.911 448.078 187.42 453.516 186.441 458.725C185.462 463.937 178.137 466.94 179.418 474.345C180.696 481.751 191.846 488.568 194.73 489.358Z" fill="#5D5FEF"/>
<path d="M174.801 441.288L174.525 438.293C174.552 433.514 175.02 429.891 176.075 426.299C177.026 423.052 178.493 419.547 181.305 417.864C185.448 415.384 190.508 418.347 193.537 420.201C196.345 421.915 198.515 423.471 201.208 425.67C206.019 429.598 211.464 434.186 212.718 441.46C213.46 445.759 212.577 449.815 211.949 453.161C211.325 456.508 210.158 460.372 210.181 464.042C210.204 467.527 211.574 470.367 211.769 473.734C212.062 478.729 209.399 481.573 206.944 484.031C206.168 484.807 201.52 489.642 200.666 486.131C200.314 484.684 201.614 483.812 202.252 483.285C204.663 481.289 207.472 478.93 208.139 475.689C208.73 472.799 207.23 469.139 206.895 465.978C206.574 462.981 207.047 460.727 207.549 458.045C207.985 455.722 208.394 453.381 208.834 450.702C209.235 448.266 209.796 445.189 209.476 442.642C208.633 435.903 203.044 431.758 199.162 428.541C196.968 426.726 195.137 425.289 192.343 423.527C190.373 422.281 186.813 420.046 183.89 420.854C181.084 421.633 179.661 426.201 178.904 429.404C178.018 433.133 177.326 437.874 178.434 441.841C179.319 445.019 181.84 447.284 183.759 449.45C185.516 451.43 187.957 454.078 188.508 457.085C189.335 461.596 186.861 464.377 185.118 466.674C183.978 468.179 182.321 469.95 181.992 471.61C181.283 475.193 183.134 479.018 184.694 480.863C187.216 483.847 191.144 484.734 194.492 486.844C193.251 484.339 192.341 482.875 191.926 480.342C190.441 471.278 195.353 464.611 196.591 458.269C197.459 453.825 196.752 447.643 194.691 443.956C193.637 442.074 192.385 440.733 190.402 438.803C189.254 437.683 185.98 435.757 186.134 433.894C186.195 433.2 186.501 432.672 187.273 432.455C188.962 431.978 191.82 435.281 192.954 436.406C194.588 438.019 196.435 440.146 197.519 442.045C199.929 446.275 200.907 453.64 199.995 458.834C198.988 464.558 195.406 469.571 195.134 476.277C194.801 484.467 200.085 487.781 202.829 493.285C204.731 497.102 205.224 502.124 203.785 506.145C201.375 512.882 196.634 516.332 195.337 523.534C194.325 529.157 194.398 535.234 194.731 541.996C194.881 544.988 194.802 546.951 193.227 546.971C191.437 546.989 191.359 544.609 191.25 541.814C190.976 534.911 191.073 527.937 192.027 522.712C192.758 518.702 194.016 515.956 195.761 513.105C197.479 510.3 199.497 507.776 200.623 504.44C202.399 499.18 199.636 493.55 196.896 490.351C196.058 490.482 195.907 491.1 194.756 490.97C194.07 490.889 192.434 489.929 191.375 489.401C185.708 486.561 179.364 483.19 178.555 474.434C178.09 469.397 180.099 467.385 182.267 464.574C183.502 462.972 185.339 460.486 185.14 458.146C184.975 456.21 183.739 454.987 182.645 453.646C179.63 449.96 175.869 446.495 174.801 441.288Z" fill="#1A1A5E"/>
<path d="M159.565 482.572C156.837 482.669 140.427 484.032 137.176 477.135C133.924 470.232 143.534 457.092 139.252 451.953C134.971 446.808 130.003 444.445 129.225 436.759C128.447 429.073 128.735 421.144 133.011 419.419C137.288 417.697 148.014 419.885 150.58 425.379C153.147 430.875 151.804 439.648 156.373 444.709C160.942 449.766 167.214 451.792 167.902 459.44C168.587 467.087 165.669 476.108 164.341 477.902C163.012 479.692 162.293 482.478 159.565 482.572Z" fill="#5D5FEF"/>
<path d="M154.922 479.721C152.071 477.436 149.024 474.78 148.184 469.558C147.666 466.325 147.93 462.898 148.181 459.523C148.403 456.529 149.174 452.544 148.43 449.731C147.894 447.702 146.093 446.362 144.762 445.167C143.499 444.029 141.728 442.49 140.887 440.865C139.877 438.92 137.609 430.052 140.927 430.077C143.375 430.093 142.701 436.558 143.71 438.826C144.464 440.526 146.465 441.869 147.954 443.358C149.426 444.835 151.285 446.763 151.876 449.415C152.58 452.57 151.918 456.174 151.65 459.46C151.302 463.72 150.805 468.868 152.613 472.323C155.877 478.566 164.967 478.42 166.508 487.233C167.467 492.709 165.767 496.954 164.8 501.253C163.841 505.498 162.72 510.009 162.581 514.792C162.383 521.529 163.293 531.905 163.975 538.541C164.228 541.003 165.217 545.199 162.987 545.369C160.973 545.523 160.874 542.579 160.587 539.48C159.819 531.212 158.967 523.052 159.089 515.86C159.169 511.142 159.939 506.632 160.87 502.595C161.838 498.387 163.35 494.54 163.296 490.047C163.248 486.254 161.841 484.391 159.717 482.719C158.732 483.223 157.417 483.332 156.192 483.414C150.588 483.784 143.016 483.553 139.083 481.347C137.146 480.26 135.443 478.423 135.06 475.425C134.264 469.226 138.244 463.597 138.092 456.946C137.916 449.113 130.626 446.244 127.908 440.827C124.73 434.5 126.831 424.563 129.501 420.548C130.921 418.412 132.814 417.049 135.768 416.944C139.009 416.826 142.44 418.184 145.073 419.814C147.638 421.405 150.298 423.588 151.784 425.966C154.648 430.556 153.785 437.907 156.346 442.645C158.875 447.328 164.119 450.202 166.977 454.852C171.018 461.427 167.697 470.134 165.304 475.515C164.74 476.782 164.008 479.168 162.389 479.059C159.772 478.887 161.181 475.808 162.029 473.939C162.515 472.876 163.294 471.048 163.734 469.831C164.766 466.982 166.152 462.745 165.182 459.216C164.487 456.693 162.389 454.428 160.509 452.577C156.768 448.889 153.046 445.647 151.491 439.027C150.583 435.157 150.659 430.723 148.834 427.885C147.416 425.681 145.302 424.165 142.791 422.7C140.67 421.463 137.161 419.858 134.513 420.898C130.995 422.284 129.464 430.126 129.946 435.32C130.572 442.058 136.189 444.451 139.23 449.235C140.431 451.119 141.461 453.523 141.551 456.755C141.644 460.072 140.672 463.492 139.907 466.501C139.305 468.872 137.567 473.176 138.839 476.22C139.755 478.408 143.184 479.124 145.745 479.475C148.824 479.897 151.989 479.707 154.922 479.721Z" fill="#1A1A5E"/>
<path d="M166.917 362.492C174.048 362.325 183.662 367.91 184.119 373.857C184.576 379.799 180.708 390.571 185.007 397.942C189.309 405.307 200.978 414.905 199.258 426.442C197.541 437.973 188.149 440.158 189.901 447.949C191.656 455.744 197.935 460.97 196.923 466.039C195.911 471.11 191.656 484.545 183.547 484.881C175.437 485.216 165.867 479.438 159.627 473.385C153.383 467.327 143.52 455.498 151.289 446.445C159.056 437.387 167.816 424.015 160.077 415.283C152.339 406.558 138.608 390.873 147.325 380.292C156.04 369.711 159.785 362.654 166.917 362.492Z" fill="#5D5FEF"/>
<path d="M182.986 486.301C184.75 491.805 187.613 497.202 187.803 503.582C187.996 510.057 186.231 514.888 184.451 519.811C182.751 524.517 181.495 529.425 181.352 536.278C181.288 539.365 181.338 543.052 181.444 546.05C181.53 548.439 182.851 554.734 180.171 554.767C178.111 554.795 178.244 551.538 178.095 548.49C177.726 540.975 177.662 532.894 178.76 526.892C179.532 522.682 181.04 518.99 182.307 515.293C183.644 511.383 184.931 507.651 184.351 502.394C183.85 497.867 181.919 493.063 180.472 489.069C177.387 480.543 174.196 473.264 171.08 464.64C169.616 460.596 167.568 455.85 167.421 451.179C167.208 444.399 170.87 438.45 173.55 433.796C175.648 430.147 178.107 425.688 177.553 419.664C177.414 418.148 176.985 416.743 176.361 415.467C174.35 411.367 171.09 408.125 168.536 404.363C167.265 402.494 166.233 400.289 165.29 397.9C164.256 395.275 163.148 392.086 163.319 388.982C163.425 387.075 163.977 385.308 164.765 383.387C165.202 382.323 166.288 379.193 168.274 380.186C169.978 381.039 168.724 383.425 168.217 384.579C166.7 388.03 166.309 391.103 168.101 395.867C168.743 397.574 169.619 399.621 170.418 401.001C173.525 406.366 178.342 409.957 180.192 415.758C181.852 420.96 180.656 427.389 179.273 430.851C176.804 437.032 170.72 442.952 170.849 450.864C170.901 453.964 172.031 456.831 172.916 459.526C175.469 467.318 178.768 475.146 181.483 482.495C184.01 480.994 186.589 478.507 188.954 475.945C190.98 473.748 193.924 470.346 193.762 466.783C193.599 463.254 191.487 460.749 189.988 458.339C188.18 455.429 185.663 452.317 185.777 447.666C185.948 440.759 192.833 438.637 194.968 433.501C196.76 429.187 196.551 420.954 194.398 415.982C193.026 412.822 190.586 410.5 188.591 408.027C184.533 402.994 180.974 397.134 181.389 387.366C181.475 385.342 181.732 383.455 181.894 381.573C182.049 379.757 182.385 377.265 181.872 375.056C181.271 372.477 179.738 370.598 178.442 369.104C176.609 366.99 174.061 364.765 170.984 364.498C166.74 364.125 163.111 366.255 160.578 367.949C155.105 371.608 151.24 376.759 148.966 383.379C147.808 386.754 146.879 391.866 147.92 395.844C148.578 398.363 150.169 400.347 151.626 402.282C153.098 404.241 154.599 406.206 155.951 407.939C158.803 411.6 162.33 416.024 163.155 421.082C164.246 427.758 161.948 432.383 159.746 436.685C157.516 441.042 154.406 444.917 152.931 449.094C151.338 453.6 152.157 462.211 154.615 466.173C156.563 469.311 161.307 472.868 164.561 475.277C165.944 476.304 167.624 477.484 169.622 478.887C171.018 479.867 174.233 481.147 173.718 483.299C173.011 486.237 168.814 482.651 167.705 481.874C165.591 480.391 163.732 478.974 162.015 477.673C158.401 474.934 154.004 471.84 151.665 467.962C148.878 463.337 147.89 454.442 149.442 448.784C150.636 444.423 153.523 440.603 155.707 436.657C157.814 432.851 160.468 427.923 159.954 422.635C159.425 417.195 155.831 413.263 152.738 409.369C149.517 405.311 145.335 401.17 144.331 395.667C143.456 390.876 144.417 386.225 145.558 382.685C148.786 372.708 156.592 363.084 167.439 361.055C171.648 360.271 175.722 361.816 178.567 364.205C181.458 366.634 184.876 370.766 185.485 375.482C186.33 382.016 183.95 386.967 185.128 394.182C186.596 403.155 194.28 407.223 197.492 414.559C200.535 421.506 200.192 431.208 197.411 436.247C196.293 438.281 194.563 439.989 192.846 441.762C191.334 443.326 189.18 445.753 189.197 448.481C189.21 451.186 191.56 454.269 192.925 456.423C194.867 459.49 197.755 463.74 197.052 468.732C196.469 472.898 193.717 476.048 191.282 478.699C188.648 481.572 186.091 483.907 182.986 486.301Z" fill="#1A1A5E"/>
<path d="M157.87 519.607H210.213C214.674 519.607 218.291 522.388 218.291 525.823L210.459 559.763C210.459 563.197 207.675 565.978 204.244 565.978H163.963C160.529 565.978 157.748 563.197 157.748 559.763L149.792 525.823C149.792 522.388 153.408 519.607 157.87 519.607Z" fill="url(#paint0_linear_1_1834)"/>
<path d="M204.243 567.842H163.963C159.508 567.842 155.88 564.217 155.88 559.763L147.979 526.246C147.926 521.366 152.39 517.741 157.871 517.741H210.213C215.693 517.741 220.157 521.366 220.157 525.821L212.277 560.18C212.325 564.217 208.698 567.842 204.243 567.842ZM157.871 521.47C154.504 521.47 151.659 523.462 151.659 525.821L159.561 559.337C159.614 562.162 161.564 564.114 163.963 564.114H204.243C206.643 564.114 208.593 562.162 208.593 559.763L216.472 525.403C216.424 523.462 213.581 521.47 210.213 521.47H157.871Z" fill="#1A1A5E"/>
<path d="M147.741 509.971H221.83C223.134 509.971 224.194 511.089 224.194 512.459L226.244 526.757C226.244 528.126 225.13 529.244 223.758 529.244H145.813C144.438 529.244 143.327 528.126 143.327 526.757L145.377 512.459C145.377 511.089 146.435 509.971 147.741 509.971Z" fill="url(#paint1_linear_1_1834)"/>
<path d="M223.759 531.107H145.813C143.414 531.107 141.459 529.156 141.459 526.757L143.533 512.195C143.511 510.059 145.409 508.108 147.742 508.108H221.83C224.164 508.108 226.061 510.059 226.061 512.459L228.09 526.493C228.113 529.156 226.158 531.107 223.759 531.107ZM147.742 511.836C147.472 511.836 147.244 512.122 147.244 512.459L145.171 527.021C145.193 527.099 145.47 527.378 145.813 527.378H223.759C224.102 527.378 224.38 527.099 224.38 526.757L222.35 512.723C222.328 512.122 222.099 511.836 221.83 511.836H147.742Z" fill="#1A1A5E"/>
<path d="M284.15 244.035L266.643 178.713C265.755 175.396 262.348 173.425 259.031 174.317L154.08 202.435C153.939 202.473 153.803 202.519 153.667 202.566L153.12 202.693C149.804 203.585 145.364 208.313 146.406 214.144L163.91 279.472C164.799 282.788 168.206 284.754 171.524 283.868L276.474 255.744C278.745 255.135 280.382 253.347 280.906 251.213C283.506 249.928 284.928 246.944 284.15 244.035Z" fill="white"/>
<path d="M169.92 285.945C166.35 285.945 163.074 283.559 162.11 279.953L144.603 214.627C143.317 207.458 148.547 201.99 152.636 200.892L153.248 200.749L258.545 172.515C260.64 171.961 262.81 172.24 264.681 173.321C266.547 174.402 267.885 176.143 268.445 178.227L285.949 243.553C286.868 246.986 285.415 250.604 282.47 252.47C281.581 254.945 279.529 256.853 276.959 257.546L172.006 285.667C171.307 285.854 170.606 285.943 169.92 285.945ZM260.649 175.967C260.27 175.967 259.887 176.015 259.513 176.117L154.565 204.236C154.543 204.242 154.106 204.379 154.085 204.385L153.539 204.511C151.263 205.122 147.359 208.878 148.239 213.817L165.711 278.99C166.332 281.311 168.749 282.683 171.038 282.066L275.991 253.945C277.523 253.531 278.711 252.314 279.094 250.769C279.221 250.235 279.582 249.785 280.075 249.541C281.928 248.627 282.879 246.515 282.347 244.518L264.844 179.194C264.54 178.071 263.822 177.133 262.815 176.55C262.145 176.165 261.402 175.967 260.649 175.967Z" fill="#1A1A5E"/>
<path d="M255.465 182.676L163.716 207.262C160.399 208.149 158.431 211.559 159.319 214.876L172.48 263.996C173.369 267.313 176.78 269.278 180.094 268.392L271.844 243.806C275.161 242.919 277.128 239.508 276.239 236.192L263.079 187.072C262.19 183.755 258.782 181.79 255.465 182.676Z" fill="#CACBFF"/>
<path d="M255.465 182.676L163.716 207.262C160.399 208.149 158.431 211.559 159.319 214.876L172.48 263.996C173.369 267.313 176.78 269.278 180.094 268.392L271.844 243.806C275.161 242.919 277.128 239.508 276.239 236.192L263.079 187.072C262.19 183.755 258.782 181.79 255.465 182.676Z" fill="#5D5FEF"/>
<path d="M178.473 270.471C177.073 270.471 175.691 270.103 174.445 269.386C172.574 268.306 171.236 266.561 170.681 264.475L157.519 215.358C156.96 213.273 157.246 211.094 158.325 209.225C159.403 207.357 161.146 206.018 163.229 205.461L254.979 180.875C259.294 179.727 263.726 182.291 264.879 186.589L278.042 235.709C279.191 240.019 276.629 244.458 272.324 245.607L180.577 270.191C179.882 270.378 179.173 270.471 178.473 270.471ZM255.948 184.477L164.197 209.063C163.075 209.364 162.137 210.084 161.555 211.09C160.975 212.096 160.821 213.269 161.12 214.394L174.283 263.514C174.582 264.636 175.304 265.574 176.308 266.154C177.32 266.736 178.496 266.89 179.609 266.591L271.359 242.004C273.679 241.386 275.057 238.993 274.441 236.671L261.279 187.554C260.663 185.245 258.276 183.858 255.942 184.479L255.948 184.477Z" fill="#1A1A5E"/>
<path d="M251.672 191.575L227.074 198.166C223.758 199.057 221.789 202.463 222.679 205.78L231.13 237.317C232.019 240.634 235.427 242.604 238.744 241.713L263.341 235.122C266.655 234.236 268.623 230.825 267.737 227.508L259.284 195.97C258.396 192.654 254.986 190.688 251.672 191.575Z" fill="white"/>
<path d="M170.844 223.711C170.017 223.711 169.264 223.16 169.044 222.324C168.78 221.329 169.37 220.307 170.365 220.044L216.011 207.931C217.019 207.674 218.027 208.261 218.291 209.256C218.555 210.25 217.965 211.272 216.97 211.537L171.324 223.649C171.161 223.69 171.003 223.711 170.844 223.711Z" fill="white"/>
<path d="M173.469 233.052C172.641 233.052 171.887 232.502 171.667 231.666C171.404 230.671 171.993 229.65 172.988 229.386L188.994 225.139C190.012 224.875 191.012 225.467 191.276 226.464C191.54 227.459 190.95 228.481 189.955 228.745L173.948 232.99C173.785 233.032 173.627 233.052 173.469 233.052Z" fill="white"/>
<path d="M196.575 226.92C195.747 226.92 194.995 226.37 194.774 225.534C194.511 224.539 195.101 223.517 196.096 223.253L218.52 217.304C219.524 217.042 220.537 217.632 220.801 218.628C221.065 219.623 220.475 220.645 219.48 220.909L197.055 226.859C196.892 226.9 196.734 226.92 196.575 226.92Z" fill="white"/>
<path d="M175.626 242.517C174.799 242.517 174.045 241.966 173.825 241.13C173.561 240.135 174.15 239.114 175.145 238.85L220.796 226.738C221.813 226.477 222.813 227.065 223.077 228.062C223.341 229.057 222.751 230.079 221.756 230.343L176.105 242.455C175.942 242.497 175.784 242.517 175.626 242.517Z" fill="white"/>
<path d="M178.17 252.524C177.342 252.524 176.588 251.973 176.368 251.137C176.105 250.142 176.694 249.121 177.689 248.856L223.34 236.744C224.344 236.475 225.358 237.072 225.621 238.069C225.885 239.063 225.295 240.085 224.3 240.349L178.649 252.462C178.486 252.504 178.329 252.524 178.17 252.524Z" fill="white"/>
<path d="M328.135 262.04C328.06 261.805 327.764 261.594 327.224 261.439L289.546 250.424C287.632 249.862 283.393 250.134 280.076 251.021L175.126 279.144C173.336 279.622 172.182 280.185 171.8 280.687C170.167 282.647 172.71 288.184 174.385 288.671L212.073 299.667C213.987 300.225 218.227 299.958 221.545 299.071L326.535 270.939C329.572 270.122 329.615 263.569 328.135 262.04Z" fill="white"/>
<path d="M214.836 301.828C213.585 301.828 212.437 301.716 211.547 301.456L173.86 290.461C171.791 289.858 170.36 286.819 169.845 285.117C169.123 282.76 169.308 280.761 170.364 279.493C170.567 279.227 171.329 278.23 174.644 277.343L279.592 249.219C282.762 248.37 287.503 247.879 290.073 248.636L327.747 259.65C328.835 259.959 329.407 260.498 329.702 261.004C331.072 262.745 331.234 266.249 330.565 268.664C329.961 270.841 328.703 272.287 327.021 272.739L222.029 300.873C219.96 301.425 217.208 301.828 214.836 301.828ZM286.803 251.997C285.029 251.997 282.674 252.257 280.556 252.822L175.612 280.944C174.04 281.364 173.358 281.765 173.226 281.884C173.178 281.963 173.05 282.418 173.239 283.361C173.587 285.068 174.617 286.669 175.04 286.935L212.595 297.877C213.995 298.288 217.816 298.141 221.065 297.272L326.052 269.137C326.347 269.058 326.669 268.598 326.889 267.935C327.483 266.157 327.167 263.817 326.779 263.322C326.704 263.238 289.022 252.215 289.022 252.215C288.537 252.072 287.753 251.997 286.803 251.997Z" fill="#1A1A5E"/>
<path d="M190.359 278.862L279.345 254.872C282.158 254.112 285.577 253.822 286.985 254.225L314.735 262.139C316.142 262.542 315.005 263.48 312.195 264.24L223.205 288.23C220.396 288.991 216.973 289.281 215.566 288.877L187.816 280.964C186.408 280.56 187.546 279.622 190.359 278.862Z" fill="#5D5FEF"/>
<path d="M565.76 567.445C562.256 554.744 550.684 513.819 547.354 509.864C544.022 505.91 537.09 506.132 534.349 506.587C531.606 507.042 524.529 511.595 524.529 511.595L517.818 508.154C517.818 508.154 517.653 502.395 515.261 500.352C512.872 498.31 504.335 493.735 498.671 488.057C493.008 482.383 484.721 472.693 484.721 472.693C484.721 472.693 487.106 466.324 482.357 451.277C477.606 436.229 465.661 404.017 465.661 404.017C465.661 404.017 464.628 370.638 464.582 361.46C464.536 352.281 463.191 333.49 460.509 319.608C457.823 305.722 454.605 287.669 454.605 287.669C454.605 287.669 462.816 233.322 459.651 223.717C456.483 214.108 449.453 206.473 442.29 202.95C435.122 199.424 434.564 198.939 432.56 192.221C430.555 185.497 429.781 179.802 429.781 179.802L431.297 173.517L442.466 166.353C442.466 166.353 451.011 164.01 451.01 160.004C451.007 151.385 446.35 146.269 446.35 146.269C446.35 146.269 448.272 139.672 445.681 134.92C443.092 130.168 444.044 127.905 440.998 128.302C437.956 128.698 433.24 128.259 433.24 128.259C433.24 128.259 424.064 116.081 417.398 118.94C410.733 121.8 410.722 123.741 410.722 123.741C410.722 123.741 402.781 117.728 399.858 122.156C396.936 126.582 398.171 132.44 398.171 132.44C398.171 132.44 395.816 135.293 397.074 137.342C398.33 139.392 399.869 140.015 399.869 140.015C399.869 140.015 399.813 143.311 396.9 148.836C393.984 154.357 394.447 157.308 391.982 157.459C389.517 157.61 388.091 157.653 388.852 160.412C389.612 163.172 391.483 164.716 391.483 164.716C391.483 164.716 392.039 173.928 397.513 176.666C402.984 179.409 411.214 177.564 413.003 183.751C414.791 189.932 413.5 196.597 413.5 196.597C413.5 196.597 398.303 196.197 390.452 198.711C382.6 201.225 377.011 206.562 377.011 206.562L370.93 203.604L358.313 168.097L356.317 151.789C356.317 151.789 356.952 144.279 355.705 139.067C354.459 133.86 353.255 129.081 352.234 129.919C351.213 130.757 350.984 139.193 350.984 139.193C350.984 139.193 348.183 129.169 345.397 126.354C342.61 123.54 339.59 121.251 338.208 123.049C336.827 124.849 338.953 136.017 338.953 136.017C338.953 136.017 336.962 132.785 333.201 129.799C329.439 126.818 325.683 122.865 323.991 124.8C322.298 126.739 323.07 129.339 325.677 132.124C328.281 134.912 331.103 136.604 331.103 136.604C331.103 136.604 335.48 150.832 332.234 152.558C328.985 154.28 326.17 154.982 324.609 152.761C323.046 150.541 322.235 145.987 319.425 145.778C316.614 145.571 312.842 147.768 315.906 153.243C318.966 158.713 322.714 163.114 327.739 167.414C332.764 171.714 336.323 172.053 336.323 172.053C336.323 172.053 343.487 204.18 345.295 212.403C347.104 220.625 347.027 222.625 348.668 224.551C350.309 226.477 355.05 231.251 355.05 231.251L328.399 266.806L300.492 263.677L278.98 254.881C278.98 254.881 270.805 247.997 268.282 249.172C265.758 250.352 262.492 254.694 261.196 263.103C259.896 271.507 258.581 282.372 260.327 285.355C262.071 288.333 267.584 292.301 267.764 288.776C267.944 285.255 266.489 282.443 266.489 282.443L268.712 278.26C268.712 278.26 282.838 285.688 287.604 285.499C292.367 285.311 294.806 284.059 294.806 284.059C294.806 284.059 324.283 296.84 336.51 294.313C348.735 291.787 378.202 258.985 378.202 258.985L386.258 313.091L342.126 461.387C342.126 461.387 343.063 488.627 361.927 492.579C380.791 496.524 385.709 489.743 392.158 486.028C398.604 482.307 428.838 459.946 428.838 459.946C428.838 459.946 444.749 499.291 462.71 516.489C480.67 533.691 500.446 544.21 504.664 544.597C508.881 544.98 513.768 539.859 513.768 539.859L521.221 548.652C521.221 548.652 527.092 568.787 533.398 577.55C539.708 586.307 555.268 594.756 560.963 591.178C566.659 587.595 569.266 580.147 565.76 567.445ZM409.276 421.128L420.18 393.364L422.411 414.534L409.276 421.128Z" fill="white"/>
<path d="M413.57 164.75L420.892 172.187L419.602 178.353L434.033 178.723L434.341 172.46L443.516 167.709L448.619 164.573L455.58 162.015C455.58 162.015 456.822 157.067 455.522 153.259C454.22 149.45 451.701 144.975 451.701 144.975C451.701 144.975 456.068 133.861 447.907 129.69C439.746 125.52 438.44 128.439 438.44 128.439C438.44 128.439 433.061 118.108 426.105 118.377C419.149 118.65 416.971 123.999 416.971 123.999C416.971 123.999 406.437 116.625 402.852 122.493C399.265 128.366 402.197 131.645 402.197 131.645C402.197 131.645 399.465 136.07 401.516 137.791C403.567 139.517 407.798 138.877 407.798 138.877C407.798 138.877 408.952 159.425 411.42 158.175C413.887 156.924 413.716 150.107 413.716 150.107C413.716 150.107 420.432 147.967 420.809 152.795C421.186 157.629 413.57 164.75 413.57 164.75Z" fill="#1A1A5E"/>
<path d="M418.367 116.429L420.426 116.374C426.916 117.562 431.438 120.943 434.462 125.99C438.087 125.841 441.498 125.779 443.752 127.613C445.378 128.941 446.37 131.205 447.297 133.263C448.944 136.937 450.523 140.864 448.83 144.962C451.357 148.811 454.549 156.76 451.237 162.253C450.509 163.46 449.526 164.009 448.44 164.576C447.304 165.167 446.066 165.295 444.626 165.927C443.654 166.358 442.835 167.529 441.835 168.377C439.026 170.751 435.578 172.722 432.06 174.254C430.481 177.816 431.599 181.741 432.415 186.733C433.034 190.515 433.451 194.095 434.942 196.406C441.854 200.383 449.018 203.439 453.966 208.882C459.066 214.5 461.325 223.306 461.823 233.65C462.056 238.512 461.557 243.369 461.066 248.156C459.885 259.659 458.492 270.991 457.017 282.356C456.724 284.592 456.124 286.86 456.123 288.995C456.12 291.148 456.841 293.584 457.307 295.957C458.598 302.511 459.894 309.767 461.304 316.077C463.282 324.922 465.61 333.474 466.48 343.036C467.392 353.05 467.075 363.336 467.091 373.363C467.104 380.436 467.153 388.146 467.072 395.593C467.043 398.078 466.634 401.029 467.061 402.96C467.265 403.873 468.566 405.159 469.16 406.278C470.986 409.707 472.578 414.127 473.961 417.885C478.903 431.301 483.176 445.084 486.661 460.128C487.659 464.446 489.028 469.994 487.06 473.477C493.744 481.103 501.115 488.32 509.644 494.478C513.462 497.237 517.911 499.367 519.228 504.712C521.466 504.983 523.384 505.215 525.575 505.67C526.334 505.824 526.965 506.137 527.777 506.11C528.814 506.074 529.602 505.482 530.519 505.16C533.462 504.14 536.661 504.135 540.078 504.784C543.691 505.469 547.78 506.784 550.017 509.887C551.351 511.732 552.173 514.802 553.047 517.421C559.101 535.578 564.425 555.921 568.355 576.08L568.379 576.579C567.98 584.605 565.376 591.136 558.603 592.57C554.77 593.384 550.909 592.469 547.638 591.369C537.851 588.067 532.368 580.98 528.242 571.156C525.49 564.599 523.141 557.653 520.982 551.246C520.923 551.073 520.906 550.997 520.843 550.872C519.924 549.12 518.321 547.466 517.087 545.854C515.754 544.118 514.296 542.569 513.208 540.835C511.945 542.08 511.141 543.26 509.733 544.174C506.016 546.591 502.114 544.349 498.514 542.724C491.452 539.543 485.197 536.002 479.331 532.002C455.611 515.81 439.097 489.299 428.037 460.941C415.824 469.773 403.288 479.906 390.086 488.301C385.546 491.189 380.805 493.86 374.261 494.468C359.482 495.842 349.708 490.476 344.629 480.649C341.966 475.489 339.88 468.98 340.233 462.283C340.402 459.018 340.969 455.911 341.596 452.883C342.204 449.959 342.803 447.021 343.597 444.087C346.586 433.051 350.11 422.024 353.519 410.982C363.271 379.383 373.195 348.125 382.906 316.418C383.382 314.86 384.118 313.375 384.16 312.265C384.226 310.454 383.577 308.036 383.248 305.924C380.964 291.243 378.453 276.127 376.397 261.776C374.822 262.684 373.707 264.227 372.456 265.499C368.457 269.574 364.569 273.579 360.55 277.555C355.217 282.834 350.182 288.756 343.708 292.741C340.022 295.007 336.305 296.458 331.41 296.565C326.835 296.659 322.441 295.297 318.197 294.043C312.181 292.267 306.44 289.639 300.909 287.387C299.045 286.632 297.113 285.628 295.221 285.042C294.216 284.729 292.381 285.909 291.516 286.14C290.306 286.464 288.97 286.75 287.793 286.866C284.69 287.156 282.774 286.463 280.454 285.436C278.374 284.516 276.394 283.522 274.494 282.474C272.658 281.458 270.983 280.052 268.89 279.376C268.642 280.171 268.352 280.923 267.902 281.523C268.318 283.793 270.311 284.999 269.903 287.842C269.567 290.173 265.888 291.483 263.249 290.639C259.345 289.391 257.071 283.33 257.55 277.931C257.687 276.372 258.326 274.989 258.542 273.409C258.736 272.009 258.724 270.397 258.925 268.776C259.322 265.608 259.929 262.637 260.43 259.744C260.723 258.072 260.648 256.519 261.176 255.106C262.308 252.098 264.601 248.897 267.123 247.703C269.737 246.466 272.676 247.938 274.828 249.125C276.944 250.289 278.704 251.816 280.574 252.717C283.539 254.143 287.456 255.314 290.832 256.812C292.437 257.524 294.114 258.342 295.788 259.051C297.556 259.805 299.377 260.77 300.98 261.161C303.114 261.683 305.561 261.755 307.805 261.978C314.956 262.687 321.46 263.196 328.633 264.047C337.11 253.359 345.27 242.36 353.609 231.539C350.387 228.642 346.679 225.781 345.227 221.023C343.768 216.25 342.699 210.759 341.559 205.262C339.335 194.548 337.035 183.248 335.023 172.722C327.496 170.34 320.364 164.092 316.087 156.992C314.416 154.223 312.479 149.788 313.622 146.068C314.968 141.687 321.834 143.319 323.832 146.673C324.439 147.688 324.556 149.353 325.211 150.128C326.131 151.224 328.246 151.706 329.633 151.385C332.788 150.66 331.633 145.988 330.908 142.61C330.462 140.534 330.088 137.943 329.542 136.903C329.22 136.284 328.324 135.558 327.63 134.954C325.749 133.318 322.81 131.327 321.891 128.99C320.07 124.378 322.86 120.379 327.144 122.357C330.015 123.68 332.886 126.129 335.308 128.256C335.477 128.407 335.993 129.43 336.178 128.732C336.35 128.096 335.85 126.705 335.8 125.873C335.604 122.72 336.541 120.891 339.329 121.156C343.865 121.596 347.513 126.262 349.319 129.758C350.17 129.335 350.568 127.911 352.141 127.935C355.354 127.981 356.909 134.071 357.582 137.781C358.036 140.28 358.246 142.542 358.166 144.881C358.092 147.102 357.499 149.376 357.515 151.515C357.536 153.927 358.234 156.618 358.614 159.228C359 161.875 359.085 164.607 359.585 166.822C360.242 169.731 361.665 172.784 362.681 175.726C365.775 184.692 368.983 194.018 371.972 202.575C372.86 203.254 374.197 203.431 374.962 204.249C382.13 195.514 397.677 194.798 412.877 193.748C412.352 189.351 412.476 184.475 410.248 181.952C408.347 179.802 404.491 180.168 401.051 179.699C396.113 179.029 392.264 174.222 391.117 169.729C390.593 167.678 389.286 162.105 392.209 162.207C393.648 162.253 393.894 163.66 394.06 165.404C394.507 170.091 396.353 174.028 399.395 175.502C401.434 176.489 404.203 176.232 406.354 176.561C408.765 176.934 410.74 177.5 412.283 178.901C415.256 181.602 415.809 186.629 416.436 192.154C421.121 191.469 426.268 191.915 429.939 193.166C429.054 189.16 428.411 184.879 427.759 180.612C425.1 180.679 422.69 180.804 420.127 180.689C417.926 180.597 415.082 180.744 413.869 179.109C412.313 177.015 414.171 174.222 413.781 172.243C413.499 170.814 411.815 169.412 410.683 168.33C409.792 167.477 407.616 165.857 407.35 164.55C406.774 161.7 410.002 160.643 411.692 159.062C412.292 158.504 412.979 157.543 413.515 156.643C414.725 154.608 415.17 152.96 413.148 151.535C412.52 151.089 411.189 150.649 411.356 152.077C411.468 153.026 411.839 152.314 412.602 152.793C414.548 154.014 412.54 156.334 410.314 155.601C409.58 157.374 409.165 159.912 406.874 159.691C403.498 159.365 402.554 147.943 402.554 147.943C402.554 147.943 402.338 145.235 402.111 143.837C401.526 143.697 401.413 144.439 401.071 144.864C399.878 146.327 398.636 147.713 397.783 149.569C396.58 152.184 395.938 155.232 394.493 156.773C393.334 158.015 387.142 161.031 387.357 157.091C387.474 154.957 390.544 155.488 391.825 154.224C393.565 149.898 395.614 145.456 398.276 142.19C398.604 141.785 399.3 141.495 399.185 140.918C396.402 140.606 394.919 138.486 395.767 135.386C395.967 134.655 396.656 133.708 396.622 132.993C396.576 132.037 395.622 131.097 395.509 130.026C395.04 125.58 397.08 121.515 400.111 119.912C403.327 118.214 408.061 118.565 411.913 120.847C413.889 119.206 415.479 117.198 418.367 116.429ZM429.032 171.837C429.594 171.012 431.626 170.444 432.816 169.865C435.658 168.475 437.553 166.945 439.621 165.188C440.667 164.299 441.702 163.107 442.769 162.608C444.796 161.658 446.864 161.895 448 160.469C448.965 159.252 449.053 157.077 448.965 155.321C448.825 152.573 447.825 150.69 446.836 148.883C446.21 147.741 445.214 146.585 445.101 145.56C444.918 143.906 446.051 142.355 445.944 140.42C445.846 138.656 444.924 136.428 444.088 134.597C442.499 131.124 441.392 129.699 437.299 129.534C435.817 129.48 434.263 130.072 432.941 129.65C431.754 129.272 431.215 127.579 430.358 126.349C429.598 125.257 428.345 123.792 427.54 123.177C425.858 121.893 422.737 120.303 420.243 120.124C417.824 119.953 416.973 121.324 415.636 122.618C414.861 123.369 413.795 124.868 412.717 124.948C411.721 125.017 410.22 124.062 409.262 123.664C406.563 122.545 402.037 121.67 400.212 124.528C399.548 125.573 398.783 128.006 399.141 129.929C399.351 131.068 400.385 131.309 400.489 132.763C400.619 134.602 399.28 135.015 399.12 137.045C400.862 138.092 403.939 136.865 405.124 138.384C406.001 139.515 405.689 143.534 405.966 145.854C406.317 148.781 406.807 151.209 407.155 152.938C408.149 150.73 408.565 147.519 411.116 147.093C413.303 146.724 415.574 148.53 416.701 149.814C417.691 150.942 418.425 152.478 418.261 154.518C417.924 158.689 414.042 162.025 411.436 163.815C414.337 166.848 419.072 170.402 416.902 176.657C419.971 177.315 424.006 176.9 427.698 176.868C428.436 175.242 428.184 173.089 429.032 171.837ZM346.093 145.829C343.166 146.185 344.126 142.795 344.261 140.506C344.35 138.944 344.287 137.188 344.147 135.641C343.76 131.288 343.058 125.547 339.515 125.024C339.483 124.874 339.377 124.952 339.274 125.03C339.554 127.256 339.965 129.663 340.499 132.863C340.935 135.485 343.171 141.581 339.945 141.497C338.287 141.453 337.535 138.243 336.938 136.954C334.327 131.307 329.995 128.068 325.118 125.536C324.803 128.395 326.882 129.48 328.279 130.819C329.605 132.084 331.872 133.282 332.72 134.946C333.624 136.717 333.884 139.298 334.371 141.518C334.878 143.842 335.598 146.411 335.444 148.734C335.238 151.849 332.885 154.762 329.933 155.124C325.923 155.613 321.192 152.929 320.769 148.502C319.745 147.841 318.812 147.083 317.187 147.1C316.564 152.088 318.888 155.027 320.97 157.733C323.964 161.631 327.227 165.036 331.612 167.318C333.364 168.229 337.397 169.153 338.201 170.762C338.708 171.771 338.734 173.226 338.986 174.487C339.767 178.387 340.58 182.121 341.24 186.038C345.565 182.488 353.075 179.602 360.76 181.151C359.758 176.969 357.221 172.489 356.111 167.664C355.538 165.168 355.376 162.278 354.99 159.451C354.618 156.743 353.845 153.812 353.866 151.239C353.884 149.104 354.599 146.903 354.639 144.602C354.711 140.298 353.815 136.208 352.251 132.8C352.498 135.475 352.494 138.864 352.423 141.415C352.364 143.589 352.943 145.897 350.826 145.953C347.303 146.047 349.629 137.526 347.894 135.414C347.843 138.954 348.882 145.486 346.093 145.829ZM367.379 200.328C366.211 196.99 365.275 194.272 364.145 191.051C363.607 189.515 363.254 187.441 362.465 186.35C361.055 184.399 357.432 184.297 355.105 184.548C349.496 185.144 344.73 186.991 342.315 190.755C343.768 198.092 345.337 206.335 347.057 213.731C347.643 216.25 348.093 219.009 348.985 221.05C350.435 224.371 353.633 226.429 355.785 228.86C359.883 223.303 364.377 217.774 368.567 212.409C369.987 210.594 371.53 208.865 372.666 206.931C369.01 206.321 368.562 203.708 367.379 200.328ZM457.517 315.429C456.187 309.215 454.885 302.36 453.676 296.054C453.243 293.804 452.43 291.115 452.493 289.092C452.599 285.695 453.337 282.024 453.799 278.444C455.167 267.777 456.526 256.859 457.588 246.373C458.317 239.181 458.51 230.836 456.967 223.416C455.492 216.316 452.372 211.319 447.484 207.684C442.868 204.249 438.037 203.101 433.409 199.817C432.57 199.222 431.968 198.069 430.996 197.51C429.597 196.705 427.537 196.199 425.465 195.91C423.121 195.577 419.051 195.034 416.858 195.889C416.023 196.213 415.924 197.05 414.987 197.31C413.581 197.706 411.708 197.563 410.036 197.693C398.589 198.578 386.532 199.03 379.828 204.618C378.579 205.656 377.376 207.22 376.261 208.584C372.823 212.775 369.44 217.342 366.215 221.462C353.795 237.321 342.035 252.889 329.714 268.887C328.586 270.35 327.279 272.76 325.772 272.616C324.843 272.523 324.347 271.758 324.248 271.157C323.951 269.375 326.109 268.365 325.889 267.49C323.415 267.174 321.604 267.034 319.31 266.793C317.45 266.597 314.342 265.824 312.615 266.223C309.942 266.84 308.392 272.112 307.809 274.593C307.198 277.172 306.309 284.115 308.373 286.318C308.94 286.919 310.477 287.269 311.344 287.608C314.57 288.866 317.734 289.997 320.831 290.853C325.307 292.086 329.848 293.629 335.324 292.338C343.64 290.382 349.956 282.966 354.99 277.832C365.109 267.505 374.424 258.048 384.571 247.82C386.068 246.315 387.435 243.786 389.107 243.83C389.743 243.847 390.788 244.45 390.886 245.532C391.003 246.824 389.216 248.244 388.391 249.095C385.194 252.389 382.057 255.395 379.395 258.571C381.863 273.657 384.404 290.351 386.878 305.827C387.247 308.117 387.935 310.823 387.819 312.791C387.733 314.315 386.892 316.279 386.371 317.952C384.758 323.127 383.062 328.262 381.531 333.189C394.31 328.381 410.287 331.277 423.811 332.812C438.084 334.43 451.377 336.723 462.638 341.267C461.835 332.014 459.341 323.943 457.517 315.429ZM299.944 264.812C298.385 264.396 296.521 263.353 294.745 262.575C291.146 261.008 287.757 259.359 284.222 257.988C282.331 257.252 280.333 256.871 278.675 256.015C275.656 254.451 273.061 251.203 269.338 250.892C268.368 250.814 267.461 252.148 266.885 252.833C266.292 253.537 265.53 254.288 265.65 254.864C268.283 253.945 276.67 253.237 276.756 256.438C276.825 259.076 273.74 257.914 271.61 257.825C268.088 257.674 264.47 258.43 264.116 260.772C265.707 259.999 274.943 257.59 274.46 261.617C274.158 264.142 268.551 262.892 266.082 263.84C264.526 264.442 262.699 265.838 262.63 267.677C263.174 267.598 263.936 266.922 264.64 266.625C266.74 265.749 273.279 264.308 273.289 267.521C273.296 270.249 268.311 269.007 265.898 270.088C262.551 271.591 260.794 276.242 261.075 280.707C261.268 283.76 262.998 288.021 266.224 286.936C266.028 285.004 264.359 284.084 264.173 282.123C264.014 280.435 265.055 279.244 265.664 277.837C266.345 276.268 266.754 274.914 267.941 274.779C269.072 274.655 270.954 276.075 272.16 276.792C273.671 277.69 274.937 278.391 276.147 279.056C280.406 281.397 283.735 284.226 289.296 282.829C289.03 282.295 288.117 281.899 288.11 280.863C288.092 277.852 291.649 279.661 293.298 280.347C296.726 281.774 301.177 283.531 303.93 284.683C302.592 276.778 304.689 270.213 307.616 265.607C305.188 265.087 302.629 265.527 299.944 264.812ZM413.994 335.321C407.963 334.733 401.629 333.709 395.752 334.059C389.991 334.401 385.238 336.224 380.161 337.471C369.808 371.235 358.85 405.043 348.925 438.951C347.459 443.966 346.275 448.922 345.173 454.159C344.001 459.733 343.284 464.864 344.9 471.151C347.674 481.939 353.582 488.85 364.744 490.603C369.869 491.404 376.988 491.092 381.63 488.904C385.729 486.971 389.696 484.179 393.521 481.593C405.056 473.793 416.038 465.224 426.756 456.979C425.423 456.336 424.096 455.41 422.992 454.332C416.338 447.85 411.252 435.508 412.494 422.52C396.59 431.63 379.233 440.847 363.164 450.183C361.619 451.081 358.867 452.644 358.659 449.803C358.519 447.86 362.412 446.367 363.789 445.548C365.992 444.235 368.052 443.355 369.931 442.26C381.954 435.276 394.159 428.55 406.035 421.82C413.422 402.462 420.869 382.556 428.301 363.159C428.956 361.454 430.243 355.496 432.548 355.68C434.664 355.85 433.943 358.385 433.467 359.652C430.03 368.744 426.981 377.006 423.577 385.885C423.004 387.385 421.967 389.194 421.85 390.305C421.69 391.856 422.192 393.778 422.345 395.538C422.829 401.09 423.088 406.615 423.615 411.86C430.056 408.272 437.899 404.242 445.002 400.428C447.469 399.104 449.857 397.434 452.841 397.094C456.276 396.706 459.651 397.93 461.786 399.104C462.402 399.446 463.039 399.998 463.397 399.81C463.411 381.855 463.973 363.805 462.951 345.256C449.237 339.65 431.412 337.025 413.994 335.321ZM411.11 418.938C414.103 417.162 417.409 415.683 420.188 413.7C419.62 408.729 419.448 403.31 418.847 398.378C416.276 405.237 413.562 411.964 411.11 418.938ZM445.082 412.164C446.292 412.4 448.204 412.458 449.003 413.054C449.673 413.559 450.386 415.784 450.902 417.25C454.294 426.891 457.352 435.688 460.721 444.962C461.306 446.572 462.237 448.493 462.281 449.666C462.328 451.031 461.473 452.855 461.056 454.444C460.63 456.053 460.022 457.784 460.091 459.588C460.191 462.183 461.469 464.306 461.88 466.533C463.978 468.423 465.702 470.526 468.074 471.863C471.167 473.604 482.075 475.769 484.058 471.56C485.005 469.554 484.067 465.221 483.505 462.583C479.746 444.959 474.593 429.356 468.702 414.405C467.681 411.807 466.863 409.114 465.565 407.123C463.447 403.861 457.781 399.611 452.543 400.976C447.508 402.284 443.371 405.924 438.458 407.968C439.885 410.818 441.817 411.521 445.082 412.164ZM435.153 409.805C431.689 411.73 428.227 413.651 424.763 415.577C423.728 420.812 424.182 426.874 425.434 432.043C426.65 437.048 428.508 441.961 431.839 444.233C434.101 443.838 436.073 444.865 438.449 445.555C440.248 446.077 442.211 446.328 443.49 447.043C444.586 447.664 445.798 449.431 446.809 450.577C449.89 454.053 452.809 457.487 455.896 460.575C456.074 460.75 456.278 461.325 456.647 461.056C456.349 457.957 456.792 456.216 457.394 453.916C457.752 452.553 458.574 450.877 458.521 449.639C458.477 448.575 457.605 446.832 457.107 445.431C453.625 435.655 449.939 425.744 446.733 416.24C441.335 415.803 437.47 413.663 435.153 409.805ZM420.514 417.937C419.41 418.754 417.926 419.213 417.226 420.146C416.042 421.733 415.737 424.313 415.723 426.68C415.678 434.763 419.421 443.763 422.819 448.22C424.362 447.355 426.174 446.746 427.801 445.962C422.853 440.133 419.807 428.808 420.514 417.937ZM487.209 479.096C486.287 478.136 485.457 476.947 484.287 476.299C478.666 478.673 471.079 477.532 466.912 475.39C464.523 474.163 462.157 471.917 459.978 469.831C454.457 464.549 449.66 459.347 444.653 453.632C443.61 452.439 442.606 450.907 441.588 450.34C440.253 449.598 438.327 449.532 437.037 448.963C436.609 453.672 434.278 456.557 430.95 458.493C445.085 494.979 465.672 524.284 499.308 539.084C497.185 531.841 497.652 523.761 499.097 517.11C500.809 509.247 503.911 502.242 509.11 498.489C500.923 493.128 493.861 486.011 487.209 479.096ZM507.395 505.655C503.417 512.636 501.022 521.131 501.657 532.528C504.248 532.802 505.952 534.058 508.302 534.598C505.76 524.633 507.349 513.418 511.854 507.657C510.35 507.008 508.512 506.733 507.395 505.655ZM543.471 585.359C547.11 587.669 552.317 589.699 556.982 589.122C562.502 588.432 564.975 582.552 564.729 576.3C564.62 573.579 563.726 570.535 563.104 567.728C559.382 550.919 555.154 534.915 549.99 519.378C549.13 516.79 548.266 513.704 547.095 512.086C544.918 509.085 538.173 507.46 533.079 507.968C530.764 508.195 528.738 509.53 527.032 510.75C525.481 511.86 523.682 513.242 523.246 515.219C522.625 518.053 523.596 521.665 524.501 523.677C525.301 525.451 526.674 526.894 527.757 528.336C528.88 529.832 530.437 531.295 531.126 532.869C532.303 535.552 532.843 539.477 533.524 542.419C535.147 549.41 536.511 554.715 538.208 561.649C538.766 563.933 540.957 569.846 539.39 571.109C537.473 572.648 533.038 570.424 531.698 569.942C534.199 576.525 537.731 581.718 543.471 585.359ZM512.865 536.226C514.948 536.863 515.943 538.529 517.174 540.107C517.929 541.077 518.637 542.193 519.381 543.167C520.817 545.052 523.024 547.199 524.034 549.165C525.011 551.071 525.671 553.679 526.414 555.847C527.142 557.962 527.581 560.479 528.662 562.274C529.13 563.054 530.248 563.915 531.209 564.832C532.674 566.23 533.962 567.294 535.948 567.575C533.256 556.511 530.528 545.49 527.923 534.326C524.507 530.778 519.928 524.737 519.616 517.812C519.501 515.272 520.081 512.894 521.25 511.53C521.594 511.124 522.335 510.794 522.167 510.379C520.393 509.677 517.966 509.709 516.049 509.171C510.279 513.571 509.489 527.46 512.865 536.226Z" fill="#1A1A5E"/>
<path d="M405.257 162.405C406.231 162.191 407.467 162.566 407.428 164.226C407.386 165.986 403.157 170.246 401.101 170.153C400.207 170.116 399.383 169.428 399.303 168.447C399.183 167.022 400.953 166.389 401.862 165.623C403.186 164.512 403.811 162.718 405.257 162.405Z" fill="#1A1A5E"/>
<path d="M467.131 346.29C467.131 346.29 460.142 342.124 439.828 337.996C419.515 333.864 402.183 332.242 397.177 333.483C392.171 334.725 381.184 336.534 381.184 336.534L386.988 314.978L378.415 259.135C378.415 259.135 350.484 286.609 345.462 290.788C340.444 294.967 333.596 296.914 323.754 294.486C313.912 292.062 307.784 287.896 307.784 287.896C307.784 287.896 304.335 282.182 306.458 275.665C308.581 269.154 311.952 265.387 311.952 265.387L330.099 266.412L357.685 230.016C357.685 230.016 350.061 228.852 348.144 219.877C346.229 210.902 340.945 189.902 340.945 189.902C340.945 189.902 344.713 184.995 352.875 183.709C361.036 182.422 364.592 185.776 364.592 185.776L373.176 203.95L376.96 206.354C376.96 206.354 382.355 198.259 391.619 198.46C400.882 198.66 415.527 197.208 415.527 197.208L417.365 194.779C417.365 194.779 424.548 194.552 427.776 195.129C431.002 195.71 434.792 196.073 434.792 196.073C434.792 196.073 438.06 200.526 443.569 203.101C449.079 205.677 459.675 211.571 461.468 224.285C463.263 236.999 456.098 290.133 456.098 290.133C456.098 290.133 459.366 310.889 462.391 321.629C465.417 332.375 467.131 346.29 467.131 346.29Z" fill="#1A1A5E"/>
<path d="M515.547 505.928L509.132 504.347C509.132 504.347 502.235 508.218 501.11 517.439C499.985 526.66 500.768 535.58 500.768 535.58L509.466 536.473L505.946 544.317C505.946 544.317 483.695 534.06 467.511 520.952C442.215 500.47 428.241 457.598 428.241 457.598C428.241 457.598 390.223 484.412 382.463 489.071C374.703 493.726 367.17 494.684 357.09 491.242C347.011 487.8 337.976 471.616 340.052 459.058C342.127 446.5 377.865 336.024 377.865 336.024C377.865 336.024 391.737 329.387 407.548 332.239C414.174 333.431 429.77 334.407 440.304 336.496C454.914 339.403 464.042 343.37 464.042 343.37L463.629 402.899C463.629 402.899 456.108 393.676 439.639 403.406C423.17 413.141 420.168 414.179 420.168 414.179L418.711 389.084L406.731 421.159L414.835 417.32C414.835 417.32 409.578 424.395 413.415 435.862C417.25 447.329 421.257 449.282 421.257 449.282L428.696 446.833L441.15 449.755C441.15 449.755 459.544 472.033 469.059 474.777C478.57 477.517 484.775 474.608 484.775 474.608C484.775 474.608 491.603 485.608 501.083 491.683C510.564 497.755 513.295 499.112 514.575 500.952C515.856 502.791 515.547 505.928 515.547 505.928Z" fill="white"/>
<path d="M458.294 466.808C458.294 466.808 457.132 461.749 457.758 458.202C458.384 454.66 459.911 450.03 459.911 450.03L447.259 413.894C447.259 413.894 442.114 414.573 440.067 413.087C438.018 411.6 435.559 407.59 435.559 407.59L421.852 415.071C421.852 415.071 419.703 423.969 422.972 433.275C426.239 442.586 428.035 445.256 428.035 445.256L430.954 445.428L442.892 449.107L458.294 466.808Z" fill="#1A1A5E"/>
<path d="M529.365 531.754L536.726 568.354C536.726 568.354 531.816 568.607 529.825 566.792C527.836 564.977 522.323 550.031 522.323 550.031L514.197 537.776L510.166 536.137C510.166 536.137 507.886 522.427 510.157 515.683C512.426 508.934 515.53 505.185 515.53 505.185L528.694 507.453C528.694 507.453 521.947 508.402 521.108 516.759C520.268 525.117 529.365 531.754 529.365 531.754Z" fill="#1A1A5E"/>
<path d="M466.545 405.446C470.863 411.355 477.629 433.292 481.515 443.09C485.4 452.89 487.73 469.555 484.981 470.689C482.23 471.822 477.025 469.4 470.511 453.736C463.994 438.077 459.507 424.34 457.292 415.173C455.081 406.007 450.48 399.575 455.939 399.245C461.4 398.914 462.225 399.537 466.545 405.446Z" fill="#5D5FEF"/>
<path d="M549.273 510.643C551.216 514.158 563.209 555.142 565.014 563.471C566.818 571.802 568.473 581.104 563.889 582.704C559.305 584.304 552.195 584.909 545.363 559.508C538.529 534.107 533.424 518.08 536.905 509.229C539.491 502.661 547.331 507.133 549.273 510.643Z" fill="#5D5FEF"/>
<path d="M404.08 149.725C403.087 149.538 402.156 150.214 401.999 151.232L401.549 154.181C401.392 155.198 402.07 156.169 403.063 156.355C404.056 156.541 404.987 155.865 405.145 154.848L405.594 151.9C405.749 150.882 405.073 149.91 404.08 149.725Z" fill="#1A1A5E"/>
<defs>
<linearGradient id="paint0_linear_1_1834" x1="149.792" y1="519.607" x2="221.733" y2="525.766" gradientUnits="userSpaceOnUse">
<stop stop-color="#EF2555"/>
<stop offset="1" stop-color="#FF3767"/>
</linearGradient>
<linearGradient id="paint1_linear_1_1834" x1="143.327" y1="509.971" x2="225.915" y2="530.565" gradientUnits="userSpaceOnUse">
<stop stop-color="#EF2555"/>
<stop offset="1" stop-color="#FF3767"/>
</linearGradient>
</defs>
</svg>
